<?xml version="1.0" standalone="no"?>
<!DOCTYPE svg PUBLIC "-//W3C//DTD SVG 1.1//EN" "http://www.w3.org/Graphics/SVG/1.1/DTD/svg11.dtd" >
<svg xmlns="http://www.w3.org/2000/svg">
<metadata>Generated by IcoMoon</metadata>
<defs>
<font id="icon-aim" horiz-adv-x="1024">
<font-face units-per-em="1024" ascent="960" descent="-64" />
<missing-glyph horiz-adv-x="1024" />
<glyph unicode="&#x20;" horiz-adv-x="512" d="" />
<glyph unicode="&#xe600;" glyph-name="demo" d="M0 854.857v-832h1024v832h-1024zM960 86.857h-896v704h896v-704zM704 630.857c0-53.020 42.98-96 96-96s96 42.98 96 96-42.98 96-96 96-96-42.98-96-96zM896 150.857h-768l192 512 256-320 128 96 192-288z" />
<glyph unicode="&#xe601;" glyph-name="inspiration" d="M512.011 793.317c-171.745-0.044-311.464-135.165-311.464-301.18 0-107.757 43.726-171.854 75.927-219.088 19.804-29.064 31.024-46.362 31.024-63.77 0-39.064 20.937-75.883 58.149-103.487 0.937-23.159 4.357-79.718 4.357-79.718 0-0.022 0-0.044 0-0.065 0.61-16.057 9.063-48.977 64.402-67.365 6.514-9.586 15.076-18.105 25.447-25.033 6.492-4.379 14.161-6.754 22.005-6.754h60.306c7.843 0 15.49 2.309 22.005 6.754 10.392 6.95 18.976 15.447 25.447 25.033 55.839 18.584 63.966 51.874 64.423 67.474 0 0 3.399 56.471 4.336 79.652 37.212 27.626 58.171 64.423 58.171 103.487 0 17.408 11.198 34.728 31.199 64.010 31.961 46.842 75.774 111.004 75.774 218.892-0.022 166.059-139.762 301.159-311.507 301.159zM682.471 317.407c-23.007-33.726-44.706-65.578-44.706-108.128 0-18.693-16.907-33.748-29.499-42.441h-192.486c-12.593 8.671-29.499 23.748-29.499 42.441 0 42.55-21.721 74.402-44.99 108.52-29.042 42.593-61.983 90.894-61.983 174.316 0 122.594 104.402 222.378 232.726 222.421 128.346 0 232.726-99.762 232.726-222.378 0-83.596-33.007-131.832-62.288-174.752zM512.011 852.403c10.872 0 19.673 8.802 19.673 19.695v59.064c0 10.872-8.802 19.695-19.673 19.695s-19.695-8.824-19.695-19.695v-59.064c0-10.893 8.824-19.695 19.695-19.695zM302.793 810.746c3.66-6.318 10.262-9.848 17.081-9.848 3.333 0 6.732 0.85 9.826 2.636 9.434 5.447 12.658 17.473 7.211 26.907l-29.543 51.155c-5.447 9.434-17.473 12.658-26.907 7.211-9.412-5.447-12.636-17.473-7.211-26.907l29.543-51.155zM189.044 696.998l-51.155 29.521c-9.434 5.447-21.46 2.2-26.907-7.211-5.425-9.412-2.2-21.46 7.211-26.907l51.155-29.521c3.094-1.787 6.492-2.636 9.826-2.636 6.819 0 13.421 3.529 17.081 9.848 5.425 9.412 2.2 21.46-7.211 26.907zM147.388 487.779c0 10.872-8.824 19.695-19.695 19.695h-59.064c-10.872 0-19.695-8.824-19.695-19.695s8.824-19.695 19.695-19.695h59.064c10.872 0 19.695 8.824 19.695 19.695zM169.349 312.679l-51.177-29.499c-9.412-5.447-12.658-17.495-7.233-26.885 3.638-6.34 10.283-9.848 17.081-9.848 3.333 0 6.732 0.85 9.826 2.636l51.155 29.499c9.434 5.447 12.658 17.495 7.233 26.885-5.425 9.455-17.451 12.658-26.885 7.211zM905.85 283.136l-51.155 29.543c-9.455 5.447-21.46 2.244-26.907-7.19s-2.244-21.46 7.19-26.907l51.155-29.521c3.137-1.808 6.492-2.636 9.826-2.636 6.819 0 13.421 3.529 17.081 9.826 5.403 9.39 2.222 21.482-7.19 26.885zM955.393 507.453l-59.020 0.022c-10.893 0-19.695-8.824-19.695-19.673 0-10.893 8.802-19.695 19.652-19.695l59.064-0.022c10.85 0 19.673 8.824 19.673 19.673 0 10.872-8.78 19.695-19.673 19.695zM844.826 660.265c3.355 0 6.754 0.85 9.826 2.636l51.177 29.499c9.434 5.425 12.658 17.473 7.233 26.885-5.447 9.434-17.517 12.658-26.907 7.211l-51.155-29.499c-9.455-5.447-12.658-17.495-7.233-26.885 3.66-6.318 10.283-9.848 17.059-9.848zM694.323 803.578c3.094-1.808 6.471-2.658 9.826-2.658 6.797 0 13.399 3.529 17.059 9.848l29.499 51.134c5.447 9.412 2.244 21.46-7.19 26.885-9.434 5.468-21.46 2.244-26.907-7.211l-29.499-51.134c-5.425-9.39-2.179-21.438 7.211-26.863zM485.605 368.845c2.375-17.429 10.806-22.244 26.406-22.244 15.578 0 24.031 4.815 26.427 22.244l18.606 140.459c1.176 9.586 2.353 19.194 2.353 28.192v69.631c0 30.61-17.408 46.232-47.408 46.232-30.022 0-47.43-15.599-47.43-46.232v-69.631c0-8.998 1.198-18.606 2.397-28.192l18.649-140.459zM512.011 307.646c-27.037 0-49.238-22.223-49.238-49.238s22.223-49.216 49.238-49.216 49.216 22.201 49.216 49.216c0.022 27.016-22.201 49.238-49.216 49.238z" />
<glyph unicode="&#xe602;" glyph-name="attachment" d="M181.589-32.14c-48.533 0-94.165 18.923-128.469 53.205-70.805 70.827-70.805 186.112 0 256.939l561.643 561.643c45.248 45.312 105.451 70.208 169.493 70.208s124.245-24.896 169.493-70.208c45.312-45.269 70.251-105.451 70.251-169.472 0-64.043-24.896-124.224-70.187-169.472l-442.133-442.112c-13.269-13.269-34.773-13.269-48.043 0s-13.269 34.773 0 48.043l442.133 442.091c32.448 32.448 50.283 75.563 50.283 121.429 0 45.824-17.877 89.003-50.325 121.451s-75.584 50.283-121.451 50.283-89.024-17.856-121.451-50.283l-561.664-561.643c-44.309-44.373-44.309-116.501 0-160.853 43.008-42.944 117.845-42.944 160.853 0l377.131 377.173c10.24 10.24 16.128 24.448 16.128 38.912 0 14.677-5.739 28.501-16.149 38.912-21.44 21.44-56.384 21.504-77.803 0l-257.579-257.579c-13.269-13.291-34.773-13.291-48.043 0-13.269 13.269-13.269 34.773 0 48.043l257.557 257.579c47.936 47.893 125.931 47.893 173.909 0 23.253-23.253 36.053-54.144 36.053-86.955 0-32.384-13.141-64.064-36.032-86.955l-377.131-377.173c-34.325-34.283-79.915-53.205-128.469-53.205z" />
<glyph unicode="&#xe603;" glyph-name="calculator" d="M101.717 950.857h820.565v-137.835h-820.565v137.835zM102.848 609.524h819.456v-65.621h-819.456v65.621zM102.848 399.476h819.456v-65.643h-819.456v65.643zM102.848 195.977h819.456v-65.621h-819.456v65.621zM580.672 609.524h65.621v-682.667h-65.621v682.667zM377.152 609.524h65.621v-682.667h-65.621v682.667zM102.848-7.479h819.456v-65.664h-819.456v65.664zM101.717 950.857h65.621v-1024h-65.621v1024zM856.576 950.857h65.621v-1024h-65.621v1024z" />
<glyph unicode="&#xe604;" glyph-name="cart" d="M307.179 131.678c-56.32 0-102.4-46.059-102.4-102.443 0-56.32 46.101-102.379 102.4-102.379s102.4 46.059 102.4 102.379c0.021 56.363-46.080 102.443-102.4 102.443zM0 950.857v-102.379h102.379l184.341-389.12-71.68-122.88c-5.12-15.381-10.24-35.883-10.24-51.243 0-56.32 46.101-102.379 102.4-102.379h614.443v102.379h-593.984c-5.099 0-10.219 5.12-10.219 10.24v5.12l46.059 87.061h378.88c41.003 0 71.68 20.501 87.061 51.179l184.32 332.821c10.24 10.261 10.24 15.381 10.24 25.6 0 30.72-20.501 51.221-51.179 51.221h-757.781l-46.101 102.379h-168.939zM819.179 131.678c-56.32 0-102.379-46.059-102.379-102.443 0-56.32 46.059-102.379 102.379-102.379s102.443 46.059 102.443 102.379c0 56.363-46.123 102.443-102.443 102.443z" />
<glyph unicode="&#xe605;" glyph-name="info" d="M512 694.857c-35.328 0-64-28.672-64-64s28.672-64 64-64c35.349 0 64 28.629 64 64s-28.608 64-64 64zM512 502.857c-35.328 0-64-28.629-64-64v-192c0-35.349 28.672-64 64-64 35.349 0 64 28.651 64 64v192c0 35.328-28.608 64-64 64zM512 950.857c-282.304 0-512-229.696-512-512 0-282.347 229.696-512 512-512 282.347 0 512 229.653 512 512 0 282.304-229.653 512-512 512zM512 22.857c-229.397 0-416 186.645-416 416 0 229.376 186.603 416 416 416 229.355 0 416-186.624 416-416 0-229.355-186.645-416-416-416z" />
<glyph unicode="&#xe606;" glyph-name="payment" d="M740.672 903.604c-6.677 0-13.333-0.875-20.011-2.709l-126.293-34.496-556.16-105.237h798.997l-23.552 86.613c-9.152 33.728-39.659 55.829-72.981 55.829zM864.171-25.89c30.293 0 54.784 24.555 54.784 54.784v104h-324.949c-51.328 0-93.077 41.707-93.077 93.099v170.581c0 25.173-6.443 105.835 25.579 119.595 20.032 13.269 34.667 18.944 56.341 21.44 3.627 0.448 7.339 0.661 11.051 0.661h325.099v100.8c0.085 30.208-24.448 54.699-54.677 54.699h-809.429c-17.301 0-32.768-8-42.837-20.608-4.608-5.781-8.128-12.437-10.091-19.776-1.216-4.651-1.963-9.451-1.963-14.315v-610.176c0-30.229 24.533-54.784 54.741-54.784zM1006.165 437.172c-5.504 4.992-11.968 8.896-19.2 11.392-5.589 1.835-11.456 2.944-17.749 2.944h-326.421c-30.251 0-54.784-24.491-54.784-54.72v-121.941c0-30.165 24.533-54.72 54.784-54.72h326.4c6.293 0 12.16 1.131 17.749 2.965 7.253 2.368 13.717 6.379 19.2 11.371 10.987 9.984 17.856 24.384 17.856 40.384v121.941c0 15.936-6.869 30.379-17.835 40.384zM778.453 319.668c0-24.064-19.413-43.435-43.456-43.435h-28.715c-24.085 0-43.456 19.371-43.456 43.435v28.736c0 13.867 6.464 26.219 16.661 34.048 7.467 5.739 16.661 9.344 26.795 9.344h28.715c24.043 0 43.456-19.328 43.456-43.371v-28.757z" />
<glyph unicode="&#xe607;" glyph-name="print" d="M203.307 609.652v-203.285h614.891v203.285h138.56l67.243-64.747v-480.427l-65.557-69.696h-136.128v136.064h-619.008v-136.064h-136.875l-66.432 70.485v477.141l66.432 67.243zM748.501 64.734h-479.872v-69.952l73.237-66.667h339.456l67.179 66.667zM616.811 949.598h-274.368l-73.259-65.024v-412.117h478.251v340.523l-130.624 136.619zM671.125 542.964h-328.683v335.189h233.557l95.125-103.851v-231.339z" />
<glyph unicode="&#xe608;" glyph-name="clock" d="M512 950.857c-281.621 0-512-230.379-512-512s230.379-512 512-512c281.621 0 512 230.379 512 512s-230.379 512-512 512zM512 29.236c-225.28 0-409.621 184.32-409.621 409.621 0 225.28 184.341 409.621 409.621 409.621 225.323 0 409.621-184.341 409.621-409.621 0-225.323-184.299-409.621-409.621-409.621zM537.621 694.857h-76.8v-307.221l266.261-163.861 40.917 66.624-230.379 138.24z" />
<glyph unicode="&#xe609;" glyph-name="question-mark" d="M505.195 950.75c-282.837-3.691-508.949-236.032-505.152-518.848 3.819-282.645 236.053-508.843 518.763-505.045s508.907 236.096 505.088 518.848c-3.691 282.603-236.096 508.843-518.699 505.045zM503.701 127.156h-2.901c-43.499 1.323-74.304 33.408-73.003 76.309 1.195 42.197 32.597 72.789 74.688 72.789l2.603-0.107c44.693-1.301 75.115-33.003 73.792-77.184-1.088-42.325-32.085-71.808-75.179-71.808zM686.699 490.654c-10.219-14.549-32.597-32.555-61.099-54.699l-31.104-21.611c-17.216-13.291-27.605-25.899-31.509-38.208-3.008-9.685-4.608-12.245-4.8-32.043l-0.107-4.992h-119.296l0.405 10.048c1.493 41.451 2.496 65.963 19.691 86.101 26.901 31.744 86.507 70.059 89.003 71.595 8.597 6.443 15.808 13.696 21.099 21.611 12.608 17.301 18.005 30.784 18.005 44.245 0 18.389-5.397 35.584-16.405 50.837-10.389 14.741-30.315 22.251-59.008 22.251-28.416 0-48-9.088-59.605-27.648-12.011-19.051-18.112-39.104-18.112-59.499v-5.099h-122.944l0.192 5.312c3.157 75.349 29.995 129.643 79.851 161.301 31.296 20.139 70.293 30.293 115.691 30.293 59.52 0 109.803-14.464 149.312-42.901 40.213-28.992 60.395-72.192 60.395-128.747 0.043-31.509-9.963-61.099-29.653-88.149z" />
<glyph unicode="&#xe60a;" glyph-name="save" d="M69.76-73.143h884.48c38.507 0 69.76 31.253 69.76 69.76v672.448c0 27.755-11.008 54.379-30.677 73.92l-207.915 207.872h-0.256v-387.84h-553.856v387.84h-161.536c-38.507 0-69.76-31.253-69.76-69.76v-884.48c0-38.507 31.253-69.76 69.76-69.76zM552.043 950.857h148.544v-312.384h-148.544v312.384z" />
<glyph unicode="&#xe60b;" glyph-name="windows" d="M0.405 473.012l-0.405 332.843 409.6 55.637v-388.501h-409.195zM477.845 871.412l546.048 79.445v-477.845h-546.048v398.4zM1024 404.702l-0.107-477.845-546.048 76.8v401.067h546.155zM409.6 12.361l-409.259 56.107-0.043 336.235h409.301v-392.341z" />
<glyph unicode="&#xe60c;" glyph-name="download-zip" d="M863.957 143.945h-82.859v124.203h-124.181v-124.203h-82.859l144.96-144.96 144.939 144.96zM574.059-31.735v-41.408h289.899v41.408h-289.899zM874.453 834.996h-29.909v-641.899h86.357v585.344c0 31.211-25.216 56.555-56.448 56.555zM117.696 723.721h155.307c25.877 0.213 46.805 21.163 47.019 47.040v155.413c0 14.315-11.755 23.829-23.936 23.829-5.867 0-11.755-2.133-16.661-7.061l-178.624-178.603c-14.976-14.955-4.373-40.619 16.896-40.619zM211.541-16.183c0-31.211 25.344-56.533 56.533-56.533h232.512v83.819h-289.045v-27.285zM755.819 950.857h-403.947v-18.688c0.235-1.92 0.341-3.968 0.341-5.995v-154.88c0-43.925-35.712-79.637-79.637-79.637h-154.88c-1.6 0-3.307 0.107-4.907 0.213h-19.691v-592.171c0-31.211 25.344-56.533 56.533-56.533h445.184l-149.931 149.952h143.573v131.776l223.872-0.043v569.472c0.021 31.189-25.28 56.533-56.512 56.533zM413.717 235.337h-147.221c-14.741 0-26.731 11.989-26.731 26.731s11.989 26.709 26.731 26.709h147.328c14.741 0 26.731-11.968 26.731-26.709s-12.096-26.731-26.837-26.731zM661.845 371.742h-395.371c-14.741 0-26.731 11.989-26.731 26.709 0 14.763 11.989 26.731 26.731 26.731h395.371c14.741 0 26.731-11.968 26.731-26.731 0-14.741-11.968-26.709-26.731-26.709zM661.845 516.574h-395.371c-14.741 0-26.731 11.968-26.731 26.709 0 14.763 11.989 26.731 26.731 26.731h395.371c14.741 0 26.731-11.968 26.731-26.731 0-14.741-11.968-26.709-26.731-26.709z" />
<glyph unicode="&#xe60d;" glyph-name="send-teamNoty" d="M421.376 769.63v181.227l-317.141-317.141 317.141-317.184v185.792c226.539 0 385.109-72.533 498.368-231.083-45.291 226.56-181.163 453.077-498.368 498.389zM597.461 205.108c-12.8 0-23.168-10.389-23.168-23.189 0-12.757 10.368-23.147 23.168-23.147s23.168 10.347 23.168 23.147c0 12.843-10.347 23.189-23.168 23.189zM597.461 135.561c-12.8 0-23.168-10.347-23.168-23.189v-69.568c0-12.757 10.368-23.147 23.168-23.147s23.168 10.389 23.168 23.147v69.568c0.043 12.8-10.347 23.189-23.168 23.189zM597.461 297.865c-102.251 0-185.493-83.221-185.493-185.493 0-102.315 83.221-185.493 185.493-185.493 102.293 0 185.493 83.179 185.493 185.493 0 102.251-83.2 185.493-185.493 185.493zM597.461-38.327c-83.115 0-150.677 67.605-150.677 150.699s67.563 150.677 150.677 150.677c83.051 0 150.677-67.584 150.677-150.677 0.021-83.093-67.648-150.699-150.677-150.699z" />
<glyph unicode="&#xe60e;" glyph-name="account-team" d="M624 294.814h-48c-52.992 0-95.979 43.072-95.979 96.043v30.827c21.163 25.28 36.416 55.125 45.973 86.677 0.875 5.312 5.995 7.915 9.408 11.584 18.368 18.368 22.059 49.365 8.405 71.467-2.155 3.349-5.376 6.251-5.248 10.347 0 28.245 0.128 56.448 0 84.523-0.683 33.941-10.496 69.248-34.368 94.443-19.115 20.288-45.483 32.384-72.725 37.525-34.453 6.592-70.443 6.251-104.469-2.411-29.504-7.403-57.28-24.747-74.432-50.368-15.232-22.272-21.824-49.365-22.997-76.032-0.448-28.629-0.064-57.323-0.128-86.037 0.64-5.781-4.224-9.621-6.485-14.464-12.949-23.509-7.253-55.616 13.611-72.747 5.269-3.691 6.315-10.304 8.235-16.021 9.109-28.373 24.171-54.592 43.264-77.483v-31.829c0-52.971-43.008-96.043-96-96.043h-48.064c0 0-86.997-24-144-144v-48c0-26.539 21.461-47.915 48-47.915h672.064c26.496 0 47.936 21.376 47.936 47.915v48c-57.003 120-144 144-144 144zM872.768 601.012c1.131 9.237-3.307 14.421-5.995 16.064 1.749 5.269 3.968 13.269 5.589 22.379-14.677-12.523-16.213-34.795-10.709-59.797 4.224 1.621 9.387 6.997 11.115 21.355zM734.976 601.012c1.792-14.699 7.168-20.011 11.456-21.483 4.309 16.149 8.405 45.717-9.557 56.96 1.024-6.336 2.411-12.821 4.139-19.413-2.709-1.643-7.147-6.827-6.037-16.064zM947.733 497.524c-0.789 8.725-0.469 14.848-0.469 22.805 3.947 2.112 11.051 15.317 12.245 26.56 3.115 0.213 8 3.285 9.429 15.275 0.768 6.443-2.283 10.048-4.16 11.179 5.056 15.275 15.573 62.357-19.499 67.243-3.563 6.336-12.8 9.536-24.832 9.536-6.443-0.128-12.053-0.917-17.088-2.219-1.195-10.773-3.349-20.395-5.184-27.157 3.179-5.504 5.184-12.8 4.139-21.611-2.112-17.387-8.768-26.283-15.232-30.848-1.6-6.827-4.203-13.995-7.424-20.437 1.003-0.619 1.963-0.896 2.795-0.939 1.237-11.179 8.576-24.448 12.565-26.56 0-7.957 0.277-14.080-0.512-22.805l-0.064-0.085c3.648-1.536 7.445-3.051 11.221-4.587 26.859-10.581 62.379-24.619 72.917-63.019h45.419c-2.944 49.301-66.773 42.091-76.267 67.669zM702.293 492.894c3.755 1.451 7.573 2.965 11.2 4.501l-0.085 0.128c-0.789 8.725-0.448 14.848-0.448 22.805 3.968 2.112 11.029 15.317 12.224 26.56 0.896 0.064 1.941 0.405 3.008 1.088-3.264 6.443-5.888 13.547-7.552 20.267-6.464 4.565-13.141 13.483-15.275 30.933-1.088 9.088 1.067 16.533 4.437 22.059-1.92 8.597-3.2 16.725-3.989 24.448-4.693 2.901-11.499 4.437-19.627 4.437-48.021-0.896-53.803-36.267-43.285-76.8-1.899-1.131-4.949-4.736-4.181-11.179 1.451-11.989 6.357-15.061 9.451-15.275 1.216-11.179 8.576-24.448 12.544-26.56 0-7.957 0.277-14.080-0.491-22.805-9.493-25.579-73.6-18.368-76.523-67.669h45.419c10.539 38.4 46.208 52.459 73.173 63.061zM739.072 485.406c-27.648-12.544-67.029-21.077-79.403-55.552h144.213c-2.368 39.36-43.499 42.752-64.811 55.552zM869.013 485.406c-21.419-12.8-62.763-16.128-65.152-55.552h144.256c-12.331 34.496-51.627 43.008-79.104 55.552zM842.304 508.233c-1.152 12.523-0.725 21.291-0.725 32.747 5.717 3.008 15.851 22.016 17.6 38.080 4.459 0.384 11.541 4.736 13.589 21.952 1.131 9.237-3.307 14.421-5.995 16.064 7.253 21.867 22.357 89.536-27.968 96.533-5.141 9.088-18.432 13.675-35.627 13.675-68.992-1.259-77.312-52.053-62.165-110.208-2.709-1.643-7.147-6.827-6.016-16.064 2.069-17.237 9.109-21.589 13.568-21.952 1.728-16.043 12.331-35.072 18.048-38.080 0-11.456 0.448-20.203-0.725-32.747-13.632-36.715-105.707-26.368-109.952-97.131h295.915c-4.288 70.763-95.915 60.416-109.547 97.131z" />
<glyph unicode="&#xe60f;" glyph-name="account-setting" d="M624 289.033h-48c-52.992 0-95.979 43.051-95.979 96.043v30.827c21.163 25.28 36.416 55.147 45.973 86.677 0.875 5.312 5.995 7.915 9.429 11.584 18.368 18.368 22.059 49.365 8.384 71.467-2.133 3.349-5.376 6.251-5.248 10.347 0 28.245 0.128 56.448 0 84.523-0.683 33.963-10.496 69.248-34.368 94.464-19.115 20.288-45.483 32.384-72.725 37.525-34.453 6.592-70.443 6.251-104.491-2.411-29.483-7.403-57.259-24.747-74.432-50.368-15.232-22.272-21.845-49.365-22.997-76.053-0.448-28.629-0.064-57.323-0.128-86.037 0.64-5.781-4.245-9.621-6.485-14.464-12.949-23.509-7.253-55.616 13.611-72.747 5.269-3.691 6.315-10.304 8.213-16.021 9.109-28.373 24.192-54.592 43.285-77.483v-31.829c0-52.992-43.008-96.043-96-96.043h-48.043c0 0-86.997-24-144-144v-48c0-26.539 21.461-47.915 48-47.915h672.064c26.496 0 47.936 21.376 47.936 47.915v48c-57.003 120-144 144-144 144zM1022.656 638.964c-0.661 5.973-7.637 10.496-13.696 10.496-19.541 0-36.928 11.477-44.181 29.248-7.445 18.176-2.581 39.403 11.947 52.757 4.587 4.181 5.141 11.2 1.344 16.085-10.048 12.672-21.419 24.171-33.856 34.112-4.864 3.904-11.989 3.349-16.192-1.301-12.736-14.101-35.627-19.328-53.227-11.968-18.347 7.701-29.952 26.325-28.821 46.293 0.363 6.272-4.203 11.755-10.475 12.459-15.936 1.835-31.979 1.92-47.979 0.149-6.229-0.683-10.816-6.016-10.603-12.224 0.704-19.755-11.008-38.059-29.163-45.504-17.451-7.104-40.128-1.92-52.843 12.032-4.16 4.587-11.179 5.141-16.128 1.344-12.779-10.048-24.384-21.504-34.496-34.133-3.947-4.885-3.328-11.989 1.28-16.235 14.869-13.44 19.669-34.816 11.968-53.205-7.403-17.515-25.6-28.864-46.443-28.864-6.763 0.213-11.584-4.309-12.309-10.475-1.877-16.021-1.92-32.341-0.107-48.533 0.683-5.995 7.872-10.475 13.973-10.475 18.581 0.469 36.437-11.051 43.904-29.205 7.467-18.197 2.667-39.403-11.925-52.779-4.587-4.203-5.163-11.221-1.323-16.043 9.941-12.672 21.291-24.128 33.749-34.176 4.928-3.968 12.011-3.371 16.256 1.28 12.779 14.101 35.627 19.349 53.184 11.947 18.411-7.68 29.995-26.325 28.885-46.293-0.427-6.272 4.224-11.733 10.453-12.459 8.149-0.981 16.363-1.408 24.533-1.408 7.808 0 15.616 0.384 23.445 1.28 6.187 0.704 10.752 6.016 10.539 12.224-0.725 19.797 11.029 38.059 29.248 45.483 17.493 7.189 40.107 1.92 52.821-12.011 4.181-4.587 11.157-5.141 16.107-1.323 12.757 10.005 24.384 21.461 34.475 34.112 3.968 4.885 3.371 11.989-1.301 16.171-14.805 13.504-19.605 34.859-11.883 53.269 7.232 17.301 24.768 28.885 43.627 28.885l2.603-0.064c6.101-0.491 11.733 4.245 12.501 10.411 1.899 16.171 1.899 32.491 0.107 48.64zM811.029 543.646c-39.232 0-71.189 31.957-71.189 71.189s31.957 71.147 71.189 71.147c39.275 0 71.147-31.915 71.147-71.147 0-39.253-31.893-71.189-71.147-71.189z" />
<glyph unicode="&#xe610;" glyph-name="resend-teamNoty" d="M298.667 741.513v128l-298.667-298.667 298.667-298.688v128.021l-170.667 170.667 170.667 170.667zM554.667 698.846v170.667l-298.667-298.667 298.667-298.688v174.955c213.333 0 362.667-68.288 469.333-217.6-42.667 213.333-170.624 426.667-469.333 469.333zM757.824 270.196c-12.053 0-21.824-9.792-21.824-21.824s9.771-21.824 21.824-21.824 21.824 9.749 21.824 21.824-9.728 21.824-21.824 21.824zM757.824 204.681c-12.053 0-21.824-9.749-21.824-21.824v-65.493c0-12.032 9.771-21.824 21.824-21.824s21.824 9.792 21.824 21.824v65.493c0.021 12.032-9.728 21.824-21.824 21.824zM757.824 357.513c-96.299 0-174.677-78.379-174.677-174.677 0-96.341 78.379-174.677 174.677-174.677 96.341 0 174.677 78.336 174.677 174.677 0 96.32-78.336 174.677-174.677 174.677zM757.824 40.948c-78.272 0-141.909 63.659-141.909 141.909 0 78.272 63.637 141.909 141.909 141.909 78.229 0 141.909-63.637 141.909-141.909 0.021-78.251-63.68-141.909-141.909-141.909z" />
<glyph unicode="&#xe611;" glyph-name="add-existingTeamMem" d="M672.981 585.524c-181.141 0-329.344-148.224-329.344-329.344s148.203-329.344 329.344-329.344c181.141 0 329.323 148.16 329.323 329.344-0.021 181.141-148.181 329.344-329.323 329.344zM837.675 223.284h-131.776v-131.712h-65.856v131.712h-131.733v65.813h131.733v131.712h65.856v-131.712h131.776v-65.813zM419.797 518.025c-0.064 10.752 0.128 21.312 0.128 33.195 12.203 6.421 34.048 47.211 37.76 81.664 9.6 0.811 24.704 10.133 29.12 47.083 2.368 19.861-7.061 31.019-12.864 34.475 15.552 46.933 47.979 192.043-59.947 207.040-11.072 19.499-39.552 29.376-76.523 29.376-147.861-2.688-165.717-111.637-133.269-236.416-5.824-3.456-15.296-14.635-12.907-34.475 4.437-36.949 19.541-46.272 29.141-47.083 3.691-34.453 26.389-75.221 38.613-81.664 0-24.555 0.896-43.435-1.515-70.272-29.227-78.699-226.731-56.64-235.819-208.363h286.336c4.779 96.363 46.528 182.827 111.744 245.44z" />
<glyph unicode="&#xe612;" glyph-name="add-teamMemberAddress" d="M692.715 619.977c-182.229 0-331.285-149.099-331.285-331.285 0-182.229 149.056-331.285 331.285-331.285 182.251 0 331.285 149.056 331.285 331.285 0 182.187-149.035 331.285-331.285 331.285zM858.325 255.561h-132.501v-132.544h-66.24v132.544h-132.523v66.24h132.523v132.501h66.24v-132.501h132.501v-66.24zM291.755 312.692c0 25.579 2.603 50.517 7.531 74.645h-125.867c-5.419 0-10.005 2.219-13.739 6.677-3.712 4.501-5.568 9.877-5.568 16.384v93.781c0 4.459 1.088 8.704 3.328 12.715s5.355 6.656 9.301 8.235l118.4 55.019c-14.443 8.448-26.005 20.715-34.645 36.843-8.704 16.128-13.035 34.155-13.035 53.973 0 13.888 2.325 27.051 7.061 39.467 4.715 12.416 11.029 23.211 19.029 32.384 7.872 9.195 17.173 16.491 27.883 21.973 10.667 5.44 21.952 8.192 33.877 8.192 11.861 0 23.168-2.752 33.877-8.192 10.645-5.483 19.904-12.8 27.883-21.973s14.101-19.968 18.667-32.384c4.416-12.416 6.592-25.557 6.592-39.467 0-19.328-4.181-37.099-12.651-53.205-8.427-16.128-19.328-28.416-32.704-36.864l27.072-12.928c67.584 71.040 162.773 115.584 268.523 115.584 20.331 0 40.171-2.091 59.627-5.248-0.363 5.312-2.005 10.069-5.781 13.909-4.16 4.181-9.216 6.293-15.253 6.293h-49.813v61.803h49.813c6.037 0 11.115 2.027 15.253 6.272 4.203 4.224 6.421 9.323 6.421 15.296v64.725c0 5.973-2.219 11.072-6.421 15.275-4.117 4.203-9.216 6.315-15.253 6.315h-49.813v17.131c0 9.941-3.349 18.219-10.027 24.939-6.741 6.699-15.040 10.069-25.045 10.069h-581.269c-9.941 0-18.261-3.349-24.917-10.069-6.763-6.72-10.091-14.997-10.091-24.939v-652.139c0-9.92 3.328-18.176 10.091-24.875 6.656-6.677 14.976-10.048 24.917-10.048h274.965c-11.712 36.075-18.219 74.496-18.219 114.432z" />
<glyph unicode="&#xe613;" glyph-name="message-open" d="M948.693 540.084l-398.912-346.069c-21.227-18.603-56.043-18.603-77.269 0l-398.869 346.069c-13.632 11.755-37.909 1.536-37.909-19.819v-540.117c0-29.312 22.379-53.291 49.707-53.291h853.099c27.349 0 49.728 23.979 49.728 53.291v540.117c-0.149 23.851-23.573 33.621-39.573 19.819zM918.549 619.572l-364.821 316.437c-23.040 19.797-60.757 19.797-83.776 0l-364.672-316.437c-22.976-19.733-17.728-36.203 11.904-36.203h789.504c29.909 0.192 34.88 16.469 11.861 36.203z" />
<glyph unicode="&#xe614;" glyph-name="close-round" d="M512.021 950.836c-281.643 0-512.021-230.443-512.021-512.021s230.379-511.936 512.021-511.936c281.621 0 511.979 230.357 511.979 511.936s-230.357 512.021-511.979 512.021zM692.395 168.286l-180.437 180.373-180.331-180.309-90.155 90.197 180.331 180.309-180.373 180.352 90.155 90.176 180.373-180.373 180.437 180.373 90.133-90.176-180.373-180.352 180.373-180.437-90.133-90.133z" />
<glyph unicode="&#xe615;" glyph-name="dropup" d="M512 707.017l512-536.32h-1024z" />
<glyph unicode="&#xe616;" glyph-name="back" d="M373.824 438.857l422.741 422.741c9.707 9.707 9.707 25.429 0 35.115l-46.848 46.848c-4.651 4.672-10.965 7.296-17.557 7.296-6.613 0-12.907-2.624-17.579-7.275l-487.147-487.168c-9.707-9.707-9.707-25.429 0-35.115l487.147-487.147c4.672-4.672 10.987-7.296 17.579-7.296s12.885 2.624 17.536 7.296l46.848 46.827c9.685 9.707 9.685 25.429 0 35.115l-422.72 422.763z" />
<glyph unicode="&#xe617;" glyph-name="archive" d="M848.491 43.572v45.973h121.344c29.952 0 54.144 24.299 54.144 54.123v608.299c0 29.909-24.192 54.144-54.144 54.144h-172.907c0-0.085 0-0.213 0-0.341v-52.992c0-10.453-8.512-18.965-18.965-18.965h-56.661c-10.432 0-18.923 8.491-18.923 18.965v52.992c0 0.128 0 0.256 0 0.341h-350.699l-56.405 65.109c-9.877 11.349-24.192 17.899-39.189 17.899h-201.941c-29.909-0.021-54.144-24.256-54.144-54.165v-691.307c0-29.824 24.235-54.123 54.144-54.123h514.112v-45.973c0-30.336 24.683-54.955 54.976-54.955h170.325c30.251 0.021 54.933 24.64 54.933 54.976zM602.411 43.572v240.405c0 9.173 5.931 16.981 14.187 19.712 2.091 0.704 4.331 1.088 6.613 1.088h170.347c11.477 0 20.821-9.323 20.821-20.8v-240.427c0-11.477-9.344-20.843-20.821-20.843h-170.325c-11.52 0.021-20.821 9.387-20.821 20.864zM797.931 400.734c0-10.475-8.469-19.008-19.029-19.008h-56.555c-10.432 0-19.029 8.512-19.029 19.008v52.971c0 10.496 8.576 19.008 19.029 19.008h56.555c10.539 0 19.029-8.491 19.029-19.008v-52.971zM706.923 489.204c0-10.432-8.469-18.965-18.923-18.965h-56.661c-10.496 0-18.965 8.512-18.965 18.965v53.013c0 10.432 8.448 18.965 18.965 18.965h56.661c10.432 0 18.923-8.512 18.923-18.965v-53.013zM613.781 366.665c0 10.432 8.469 18.965 18.923 18.965h56.661c10.496 0 19.029-8.512 19.029-18.965v-27.733h-85.184c-3.179 0-6.272-0.277-9.408-0.789v28.523zM722.347 647.241h56.555c10.539 0 19.029-8.448 19.029-18.965v-53.013c0-10.432-8.469-18.965-19.029-18.965h-56.555c-10.432 0-19.029 8.512-19.029 18.965v53.013c0.021 10.496 8.597 18.965 19.029 18.965zM608.789 717.897c0 10.432 8.469 18.987 18.923 18.987h56.725c10.432 0 18.901-8.533 18.901-18.987v-53.013c0-10.432-8.448-18.965-18.901-18.965h-56.725c-10.432 0-18.923 8.512-18.923 18.965v53.013zM652.672 58.74h111.403c7.979 0 14.592 5.995 15.616 13.76 0 0.64 0.107 1.323 0.107 1.984v66.432c0 8.683-7.083 15.616-15.723 15.616h-111.403c-8.64 0-15.723-6.933-15.723-15.616v-66.432c0-0.661 0.107-1.344 0.235-1.984 0.917-7.765 7.509-13.76 15.488-13.76z" />
<glyph unicode="&#xe618;" glyph-name="brush" d="M498.496 204.724c11.477 6.571 15.424 21.291 8.789 32.64l-204.352 354.027c-6.528 11.435-21.291 15.36-32.704 8.747l-270.229-155.947 227.392-393.813zM1010.645 777.737c-27.349 47.424-88.085 63.68-135.509 36.288-2.155-1.28-3.947-2.859-5.845-4.181-2.859-0.704-5.653-2.005-8.235-3.925l-290.347-219.776c-10.496-7.979-24.427-5.141-31.104 6.272l-76.629 132.757c-6.549 11.435-20.181 13.781-30.229 5.291l-66.283-56.064c-10.005-8.533-12.885-24.832-6.251-36.245l204.331-353.963c6.656-11.435 22.144-17.152 34.517-12.651l81.792 29.355c12.288 4.416 17.088 17.408 10.581 28.821l-76.736 132.757c-6.571 11.435-2.155 24.939 10.005 30.080l335.573 141.547c2.923 1.28 5.504 3.029 7.509 5.099 2.219 1.024 4.501 1.749 6.635 3.008 47.36 27.349 63.723 88.043 36.224 135.531zM952.491 680.073c-26.56-15.403-60.501-6.251-75.861 20.288s-6.144 60.437 20.352 75.797c26.496 15.317 60.501 6.272 75.712-20.245 15.445-26.603 6.379-60.523-20.203-75.84z" />
<glyph unicode="&#xe619;" glyph-name="calendar" d="M250.219 707.316h14.656c22.272 0 40.32 18.069 40.32 40.32v152.832c0 22.272-18.048 40.32-40.32 40.32h-14.656c-22.251 0-40.32-18.048-40.32-40.32v-152.853c0.021-22.229 18.069-40.299 40.32-40.299zM767.296 708.318h14.656c22.251 0 40.32 18.069 40.32 40.32v152.853c0 22.272-18.069 40.32-40.32 40.32h-14.656c-22.272 0-40.341-18.048-40.341-40.32v-152.853c0.021-22.251 18.069-40.32 40.341-40.32zM958.464 858.868h-103.467v-120.811c0-40.299-32.768-62.528-73.067-62.528h-14.656c-40.32 0-73.088 32.789-73.088 73.088v110.251h-356.224v-111.253c0-40.299-32.789-73.088-73.067-73.088h-14.656c-40.299 0-73.067 32.789-73.067 73.088v111.253h-111.637c-36.139 0-65.536-29.376-65.536-65.536v-791.893c0-36.117 29.397-65.515 65.536-65.515h892.928c36.139 0 65.536 29.397 65.536 65.515v791.893c0 36.16-29.397 65.536-65.536 65.536zM958.464 1.438h-892.928v598.016h892.949l0.043-597.995c-0.021 0-0.021-0.021-0.064-0.021zM545.835 398.878h117.675c4.672 0 8.448 3.776 8.448 8.448v101.888c0 4.672-3.797 8.448-8.448 8.448h-117.675c-4.672 0-8.448-3.776-8.448-8.448v-101.888c-0.021-4.672 3.776-8.448 8.448-8.448zM737.877 398.878h117.675c4.672 0 8.448 3.776 8.448 8.448v101.888c0 4.672-3.776 8.448-8.448 8.448h-117.675c-4.672 0-8.448-3.776-8.448-8.448v-101.888c-0.021-4.672 3.776-8.448 8.448-8.448zM161.771 232.073h117.675c4.672 0 8.448 3.776 8.448 8.448v101.888c0 4.672-3.776 8.448-8.448 8.448h-117.675c-4.672 0-8.448-3.797-8.448-8.448v-101.888c0-4.693 3.776-8.448 8.448-8.448zM353.792 232.073h117.675c4.672 0 8.448 3.776 8.448 8.448v101.888c0 4.672-3.776 8.448-8.448 8.448h-117.675c-4.672 0-8.448-3.797-8.448-8.448v-101.888c0-4.693 3.797-8.448 8.448-8.448zM545.835 232.073h117.675c4.672 0 8.448 3.776 8.448 8.448v101.888c0 4.672-3.797 8.448-8.448 8.448h-117.675c-4.672 0-8.448-3.797-8.448-8.448v-101.888c-0.021-4.693 3.776-8.448 8.448-8.448zM737.877 232.073h117.675c4.672 0 8.448 3.776 8.448 8.448v101.888c0 4.672-3.776 8.448-8.448 8.448h-117.675c-4.672 0-8.448-3.797-8.448-8.448v-101.888c-0.021-4.693 3.776-8.448 8.448-8.448zM279.445 184.052h-117.675c-4.672 0-8.448-3.797-8.448-8.448v-101.888c0-4.672 3.776-8.448 8.448-8.448h117.675c4.672 0 8.448 3.776 8.448 8.448v101.888c0 4.651-3.797 8.448-8.448 8.448zM471.467 184.052h-117.675c-4.672 0-8.448-3.797-8.448-8.448v-101.888c0-4.672 3.776-8.448 8.448-8.448h117.675c4.672 0 8.448 3.776 8.448 8.448v101.888c0 4.651-3.776 8.448-8.448 8.448zM663.509 184.052h-117.675c-4.672 0-8.448-3.797-8.448-8.448v-101.888c0-4.672 3.797-8.448 8.448-8.448h117.675c4.672 0 8.448 3.776 8.448 8.448v101.888c0 4.651-3.797 8.448-8.448 8.448zM855.552 184.052h-117.696c-4.651 0-8.448-3.797-8.448-8.448v-101.888c0-4.672 3.797-8.448 8.448-8.448h117.696c4.672 0 8.448 3.776 8.448 8.448v101.888c-0.021 4.651-3.797 8.448-8.448 8.448z" />
<glyph unicode="&#xe61a;" glyph-name="csv" d="M908.053 596.83h-24.619v106.432c0 0.789-0.128 1.472-0.192 2.24-0.064 4.651-1.557 9.28-4.757 12.992l-197.419 225.557c-0.064 0.064-0.128 0.064-0.192 0.128-1.195 1.28-2.56 2.432-4.011 3.307-0.448 0.341-0.875 0.597-1.323 0.789-1.259 0.725-2.56 1.28-3.947 1.664-0.384 0.128-0.747 0.341-1.067 0.405-1.493 0.384-3.072 0.555-4.629 0.555h-485.184c-22.165 0-40.128-18.069-40.128-40.128v-313.941h-24.64c-31.68 0-57.408-37.973-57.408-69.589v-298.517c0-31.616 25.728-57.365 57.408-57.365h24.64v-204.309c0-22.123 17.963-40.256 40.128-40.256h662.592c22.123 0 40.128 18.133 40.128 40.256v204.309h24.619c31.68 0 57.365 25.685 57.365 57.365v298.517c0.021 31.616-25.664 69.589-57.365 69.589zM180.715 910.772h465.152v-205.44c0-11.157 8.939-20.096 20.053-20.096h177.365v-88.405h-662.571v313.941zM482.965 365.982c-49.771 17.365-82.219 44.928-82.219 88.491 0 51.115 42.688 90.304 113.365 90.304 33.813 0 58.752-7.061 76.501-15.189l-15.061-54.677c-12.011 5.803-33.365 14.315-62.741 14.315s-43.584-13.376-43.584-28.992c0-19.008 16.896-27.563 55.595-42.197 52.928-19.563 77.867-47.125 77.867-89.429 0-50.24-38.677-92.992-121.003-92.992-34.219 0-68.096 8.939-84.971 18.24l13.76 56.064c18.304-9.323 46.272-18.688 75.179-18.688 31.147 0 47.659 12.928 47.659 32.491 0 18.688-14.315 29.376-50.347 42.261zM129.749 385.481c0 102.443 72.96 159.317 163.712 159.317 35.157 0 61.845-7.061 73.877-13.312l-13.845-53.803c-13.76 5.76-32.875 11.072-56.96 11.072-53.803 0-95.595-32.448-95.595-99.115 0-60.117 35.563-97.877 96.128-97.877 20.416 0 43.115 4.437 56.448 9.749l10.24-52.928c-12.459-6.251-40.448-12.928-76.992-12.928-103.637-0.043-157.013 64.448-157.013 149.824zM843.307-22.071h-662.592v193.365h662.592v-193.365zM798.443 240.116h-79.189l-96.064 299.861h74.304l36.437-126.869c10.24-35.627 19.563-69.803 26.688-107.179h1.365c7.552 36.053 16.875 71.552 27.072 105.877l38.315 128.192h72.064l-100.992-299.883z" />
<glyph unicode="&#xe61b;" glyph-name="document-activity" d="M725.504 621.342c0 45.013 36.608 81.472 81.536 81.472 45.035 0 81.536-36.459 81.536-81.472s-36.501-81.536-81.536-81.536c-44.928-0.021-81.536 36.501-81.536 81.536zM510.336 262.644l-42.304-58.624-171.008 0.192c-22.805 0-45.696-19.605-45.696-42.432 0-26.027 19.627-45.568 45.696-45.568l197.12-0.256c16.171 0 29.248 6.443 39.083 22.763l42.368 61.952c-3.243 0.021-61.931 39.083-65.259 61.973zM957.035 350.686l-120.597 29.355-35.925 110.827c-0.768 2.432-2.347 4.139-3.435 6.251-1.92 5.568-5.632 11.157-12.885 16.597l-53.589 35.797c-3.968 4.16-8.683 7.851-14.677 9.792l-123.968 42.389c-9.771 3.285-22.784 3.285-29.376 0l-140.224-74.944c-19.52-9.856-26.005-32.704-16.213-49.045 6.485-12.928 16.213-19.52 29.291-19.52 6.507 0 13.035 0 19.584 3.307l127.104 65.259 75.115-26.496-98.027-149.589c-18.283-31.637-27.755-63.083-8.469-87.851 3.392-6.443 7.915-12.373 15.189-16.448l123.712-91.307-74.773-166.272c-9.899-22.763 0-48.939 22.699-58.752 6.443-3.179 13.077-3.179 19.584-3.179 16.277 0 32.533 9.813 39.061 26.155l87.979 202.069c9.899 16.277 3.307 39.061-12.949 52.139l-96.917 70.677 78.293 127.040 21.888-67.307c3.307-13.013 12.928-22.784 26.027-25.984l140.181-35.925h3.371c19.648-3.307 35.861 9.685 39.040 29.291 6.4 22.848-6.507 42.432-26.091 45.675zM62.869 742.43h150.144c25.045 0.192 45.312 19.456 45.483 43.307v143.147c0 13.227-11.435 21.973-23.125 21.973-5.675 0-11.456-1.899-16.149-6.485l-172.672-164.523c-14.464-13.781-4.181-37.419 16.32-37.419zM718.848 950.601h-414.208v-18.304c0.192-1.835 0.32-3.84 0.32-5.803v-151.381c0-42.944-36.651-77.803-81.685-77.803h-158.891c-1.621 0-3.371 0.128-5.035 0.192h-20.117v-578.709c0-30.507 25.941-55.253 57.941-55.253h73.621c-16.64 18.304-28.352 40.491-33.109 64.32-1.813 8.469-2.923 17.024-2.859 25.707 0 9.621 1.365 18.752 3.733 27.499 2.453 10.859 5.931 21.184 10.688 30.315 8.64 16.512 19.947 30.037 32.725 41.216 25.813 21.824 58.283 36.181 98.283 36.565h111.467l15.403 20.352 22.016 29.163c2.688 8.171 5.76 15.808 9.216 22.955-2.987-0.491-6.336-1.387-8.896-1.707-11.349-1.344-18.944-1.024-22.336-1.109-22.933-0.32-50.112 6.4-71.872 20.416-19.456 12.267-32.533 28.608-41.813 44.288l-0.448-0.256c-0.576 0.896-0.704 1.92-1.301 2.795-0.64 1.173-1.771 2.432-2.368 3.584l0.725 0.256c-10.155 18.496-15.68 38.357-15.616 57.557-0.192 34.283 15.104 66.965 40.896 90.987h-0.576c0.448 0.469 1.109 0.661 1.493 1.131 3.605 3.2 7.915 5.547 11.904 8.448 5.163 3.755 9.6 8.171 15.552 11.115l-0.064 0.256 4.053 2.005-0.128 0.192 150.037 76.48c13.269 6.059 23.424 8.427 32.533 9.984s17.088 2.027 24.811 2.112c15.531-0.149 29.931-1.835 47.403-7.275l24.512-7.979c17.664 45.376 54.421 81.408 100.821 100.117 1.088 0.448 2.219 0.747 3.243 1.237 4.139 1.557 8.171 3.328 12.501 4.565 10.731 3.733 21.824 6.869 33.429 8.448v106.027c0 30.528-25.984 55.296-58.005 55.296z" />
<glyph unicode="&#xe61d;" glyph-name="normal-bullets" d="M233.899 765.406c0-64.589-52.36-116.949-116.949-116.949s-116.949 52.36-116.949 116.949c0 64.589 52.36 116.949 116.949 116.949s116.949-52.36 116.949-116.949zM233.877 443.721c0-64.578-52.35-116.928-116.928-116.928s-116.928 52.35-116.928 116.928c0 64.578 52.35 116.928 116.928 116.928s116.928-52.35 116.928-116.928zM233.899 112.308c0-64.589-52.36-116.949-116.949-116.949s-116.949 52.36-116.949 116.949c0 64.589 52.36 116.949 116.949 116.949s116.949-52.36 116.949-116.949zM367.339 688.862h635.243c5.675 0 11.093 2.283 15.168 6.293 4.011 4.032 6.251 9.493 6.251 15.168v110.123c0 11.84-9.579 21.461-21.504 21.461h-635.157c-11.84 0-21.419-9.621-21.419-21.461v-110.123c0-11.84 9.579-21.461 21.419-21.461zM1002.496 520.222h-635.157c-11.84 0-21.419-9.621-21.419-21.461v-110.165c0-11.861 9.579-21.419 21.419-21.419h635.243c5.675 0 11.093 2.219 15.168 6.251 4.011 4.096 6.251 9.515 6.251 15.189v110.187c0 11.797-9.579 21.419-21.504 21.419zM1002.496 188.766h-635.157c-11.84 0-21.419-9.579-21.419-21.419v-110.165c0-11.84 9.579-21.419 21.419-21.419h635.243c5.675 0 11.093 2.219 15.168 6.251 4.011 4.096 6.251 9.515 6.251 15.168v110.165c0 11.84-9.579 21.419-21.504 21.419z" />
<glyph unicode="&#xe61e;" glyph-name="notice" d="M512 694.857c-35.328 0-64-28.672-64-64s28.672-64 64-64 64 28.629 64 64-28.608 64-64 64zM512 502.857c-35.328 0-64-28.672-64-64v-192c0-35.328 28.672-64 64-64s64 28.672 64 64v192c0 35.328-28.608 64-64 64zM512 950.857c-282.304 0-512-229.696-512-512 0-282.325 229.696-512 512-512 282.325 0 512 229.675 512 512 0 282.304-229.675 512-512 512zM512 22.857c-229.397 0-416 186.667-416 416 0 229.355 186.603 416 416 416 229.333 0 416-186.645 416-416 0-229.333-186.667-416-416-416z" />
<glyph unicode="&#xe61f;" glyph-name="number-bullets" d="M62.272 799.518h-0.64l-38.976-18.56-7.893 35.861 54.421 25.152h39.317v-204.416h-46.229v161.963zM1.557 355.806v28.949l26.112 23.573c44.971 40.256 66.667 63.189 67.008 87.104 0 16.661-9.749 29.888-33.344 29.888-17.621 0-33.045-8.811-43.733-16.683l-13.525 33.984c15.104 11.627 39.317 21.056 66.667 21.056 46.571 0 71.701-27.051 71.701-63.829 0-34.603-24.512-61.952-54.4-88.384l-18.859-15.701v-0.619h77.355v-39.339h-144.981zM9.749 86.068c8.469-4.715 27.989-12.587 47.488-12.587 24.853 0 37.44 11.968 37.44 27.051 0 20.459-20.117 29.547-41.216 29.547h-19.499v34.283h18.88c16.043 0 36.16 6.293 36.16 23.573 0 12.288-9.749 21.419-30.187 21.419-16.661 0-34.283-7.253-42.453-12.288l-9.749 34.581c12.267 7.872 36.48 15.424 63.211 15.424 43.392 0 67.627-22.955 67.627-50.923 0-21.717-12.267-38.997-37.44-47.509v-0.619c24.533-4.416 44.352-22.955 44.352-50.048 0-35.84-31.765-62.251-83.669-62.251-26.411 0-48.747 6.912-60.693 14.165l9.749 36.181zM299.392 82.228h700.928c6.251 0 12.309 1.877 16.683 4.949 4.544 3.264 6.997 7.509 6.997 11.925v86.784c0 9.344-10.581 16.832-23.659 16.832h-700.949c-13.035 0-23.659-7.552-23.659-16.832v-86.784c0.021-9.237 10.624-16.875 23.659-16.875zM299.392 384.073h700.928c6.251 0 12.309 1.707 16.683 4.907 4.544 3.179 6.997 7.467 6.997 11.925v86.677c0 9.344-10.581 16.917-23.659 16.917h-700.949c-13.035 0-23.659-7.595-23.659-16.917v-86.677c0.021-9.344 10.624-16.832 23.659-16.832zM299.392 658.27h700.928c6.251 0 12.309 1.835 16.683 4.949 4.523 3.2 6.976 7.467 6.976 11.968v86.72c0 9.344-10.581 16.896-23.659 16.896h-700.928c-13.035 0-23.659-7.573-23.659-16.896v-86.699c0.021-9.344 10.624-16.939 23.659-16.939z" />
<glyph unicode="&#xe620;" glyph-name="redo" d="M512 886.878c141.419 0 269.419-57.344 362.005-149.952l149.995 149.952v-384h-384l143.509 143.552c-69.504 69.44-165.504 112.448-271.509 112.448-212.075 0-384-171.925-384-384.043 0-114.667 50.325-217.579 130.005-288l-84.587-96c-106.325 93.824-173.419 231.083-173.419 384 0 282.795 229.248 512.043 512 512.043z" />
<glyph unicode="&#xe621;" glyph-name="settings2" d="M673.301 480.478c21.291 14.187 46.379 20.224 70.912 17.472l279.787 279.851-156.715 156.693-279.787-279.851c2.837-24.875-3.456-50.261-18.219-71.808l104.021-102.357zM185.237 139.657l-10.133 10.133-53.056-42.901-89.365-140.8 22.869-22.848 140.928 89.344 42.837 52.907-10.176 10.261 177.963 178.005-44.224 43.648zM428.587 633.097c20.544 73.451 1.899 155.541-55.744 213.291-57.451 57.237-138.603 76.011-211.605 56.192l123.648-123.627-32.448-121.109-121.259-32.448-123.605 123.584c-19.733-72.981-0.981-154.112 56.341-211.499 60.096-60.139 146.709-77.76 222.443-53.12l0.683-0.704 508.736-508.736c20.117-20.053 46.528-30.251 72.875-30.251 26.368 0 52.736 10.197 72.896 30.251 40.213 40.128 40.213 105.344 0 145.792l-512.96 512.384z" />
<glyph unicode="&#xe622;" glyph-name="undo" d="M512 886.878c-141.419 0-269.419-57.344-362.048-149.952l-149.952 149.952v-384h384l-143.552 143.552c69.504 69.44 165.504 112.448 271.552 112.448 212.075 0 384-171.925 384-384.043 0-114.667-50.325-217.579-130.005-288l84.587-96c106.325 93.824 173.419 231.083 173.419 384 0 282.795-229.248 512.043-512 512.043z" />
<glyph unicode="&#xe623;" glyph-name="user-activity" d="M191.701 161.14c0 75.989 65.6 140.117 143.424 140.117l120.533-0.192 32.939 45.632 4.715 13.376c-8.448-0.96-15.467-0.96-20.309-0.96-48.96 0-91.691 26.261-115.051 70.443-16.789 30.165-20.949 66.304-11.2 99.947 10.368 35.797 35.584 66.027 67.136 81.856l141.888 75.755c17.003 8.619 36.331 12.971 57.451 12.971l14.336-1.173c0 31.275 0.128 62.485 0 93.568-0.832 39.424-12.224 80.341-39.893 109.611-22.208 23.445-52.779 37.504-84.331 43.52-39.957 7.595-81.728 7.147-121.152-2.795-34.219-8.619-66.475-28.736-86.336-58.453-17.643-25.792-25.408-57.216-26.709-88.171-0.448-33.237-0.085-66.453-0.149-99.776 0.704-6.72-4.949-11.2-7.509-16.747-14.976-27.243-8.448-64.512 15.765-84.373 6.059-4.309 7.296-12.011 9.579-18.581 10.496-32.896 28.032-63.339 50.133-89.792v-36.885c0-61.483-49.877-111.509-111.381-111.509h-55.509c0 0-100.864-27.819-166.997-166.912v-55.659c0-30.805 24.875-55.552 55.701-55.552h173.675c-25.323 25.728-40.747 61.035-40.747 100.736zM762.368 619.486c0 44.885 36.459 81.259 81.28 81.259 44.907 0 81.323-36.373 81.323-81.259s-36.395-81.323-81.323-81.323c-44.821 0-81.28 36.416-81.28 81.323zM547.797 261.769l-42.24-58.496-170.56 0.213c-22.741 0-45.547-19.541-45.547-42.325 0-25.963 19.541-45.419 45.547-45.419l196.672-0.277c16.149 0 29.12 6.443 38.933 22.72l42.24 61.781c-3.2 0.021-61.867 38.955-65.045 61.803zM993.323 349.577l-120.341 29.269-35.776 110.528c-0.832 2.432-2.411 4.139-3.499 6.229-1.899 5.547-5.611 11.136-12.8 16.533l-53.525 35.691c-4.011 4.181-8.64 7.829-14.677 9.771l-123.584 42.325c-9.728 3.264-22.784 3.264-29.269 0l-139.883-74.731c-19.435-9.835-25.963-32.619-16.192-48.896 6.528-12.907 16.192-19.477 29.227-19.477 6.571 0 13.056 0 19.541 3.307l126.763 65.067 74.965-26.453-97.749-149.141c-18.325-31.552-27.755-62.933-8.512-87.616 3.435-6.443 7.893-12.352 15.147-16.427l123.456-91.072-74.709-165.824c-9.813-22.72 0-48.811 22.763-58.603 6.464-3.2 12.992-3.2 19.499-3.2 16.299 0 32.448 9.792 38.933 26.091l87.808 201.536c9.749 16.235 3.243 38.933-12.971 51.989l-96.725 70.528 78.144 126.677 21.824-67.136c3.307-12.971 12.971-22.699 26.027-25.899l139.819-35.819h3.307c19.584-3.307 35.755 9.664 38.933 29.205 6.357 22.763-6.485 42.304-25.941 45.547z" />
<glyph unicode="&#xe624;" glyph-name="xls" d="M908.053 584.585h-24.619v118.656c0 0.789-0.128 1.472-0.192 2.24-0.064 4.757-1.557 9.344-4.757 12.992l-197.483 225.536c-0.064 0.064-0.064 0.128-0.128 0.192-1.195 1.28-2.56 2.368-4.011 3.349-0.448 0.256-0.875 0.491-1.323 0.747-1.259 0.725-2.624 1.216-3.947 1.664-0.384 0.128-0.747 0.277-1.131 0.405-1.472 0.299-2.965 0.491-4.523 0.491h-485.248c-22.165 0-40.171-17.963-40.171-40.128v-326.165h-24.619c-31.68 0-57.344-25.664-57.344-57.344v-298.496c0-31.616 25.664-57.365 57.344-57.365h24.619v-204.309c0-22.123 18.005-40.192 40.171-40.192h662.613c22.123 0 40.128 18.069 40.128 40.192v204.309h24.555c31.68 0 57.429 25.685 57.429 57.365v298.453c0.021 31.744-25.664 57.408-57.365 57.408zM180.693 910.729h465.131v-205.44c0-11.072 9.003-20.096 20.117-20.096h177.365v-100.629h-662.613v326.165zM729.195 362.228c-44.011 15.317-72.683 39.616-72.683 78.123 0 45.248 37.696 79.872 100.181 79.872 29.867 0 51.883-6.379 67.563-13.376l-13.312-48.384c-10.624 5.12-29.504 12.565-55.445 12.565s-38.507-11.819-38.507-25.557c0-16.875 14.933-24.32 49.131-37.248 46.741-17.323 68.757-41.685 68.757-78.997 0-44.437-34.197-82.133-106.88-82.133-30.251 0-60.053 7.808-75.072 16.064l12.181 49.557c16.064-8.256 40.875-16.491 66.432-16.491 27.499 0 42.005 11.371 42.005 28.629 0.085 16.512-12.544 25.941-44.352 37.376zM627.947 301.3v-50.304h-165.525v264.853h60.16v-214.571h105.365zM270.272 250.974h-68.331l76.651 134.059-73.899 130.88h68.715l23.253-48.384c7.787-16.192 13.76-29.056 20.032-44.053h0.747c6.272 16.875 11.413 28.693 18.069 44.053l22.379 48.384h68.373l-74.624-129.323 78.592-135.552h-69.12l-24 47.936c-9.835 18.432-16.128 32.192-23.616 47.509h-0.747c-5.525-15.317-12.181-29.056-20.437-47.509l-22.037-48zM843.307-22.071h-662.613v193.429h662.613v-193.429z" />
<glyph unicode="&#xe625;" glyph-name="xml" d="M908.075 584.606h-24.619v118.635c0 0.725-0.128 1.493-0.256 2.197 0 4.757-1.408 9.344-4.672 13.056l-197.44 225.451c-0.043 0.064-0.171 0.128-0.171 0.192-1.216 1.28-2.496 2.432-3.968 3.349-0.427 0.32-0.875 0.491-1.365 0.747-1.259 0.725-2.539 1.28-3.925 1.664-0.384 0.149-0.704 0.341-1.088 0.405-1.536 0.299-3.115 0.555-4.608 0.555h-485.184c-22.208 0-40.192-18.027-40.192-40.192v-326.059h-24.576c-31.659 0-57.408-25.749-57.408-57.429v-298.453c0-31.68 25.749-57.365 57.408-57.365h24.576v-204.309c0-22.187 17.984-40.192 40.192-40.192h662.507c22.165 0 40.171 18.005 40.171 40.192v204.309h24.619c31.701 0 57.344 25.685 57.344 57.365v298.453c0 31.68-25.621 57.429-57.344 57.429zM180.779 910.665h465.045v-205.44c0-11.072 9.088-20.032 20.117-20.032h177.344v-100.587h-662.507v326.059zM687.040 254.537h-59.627l-3.968 103.253c-1.259 32.384-2.496 71.616-2.496 110.805h-1.131c-8.427-34.432-19.627-72.811-30.037-104.448l-32.832-105.195h-47.552l-28.779 104.384c-8.853 31.616-18.005 69.995-24.469 105.259h-0.747c-1.6-36.437-2.816-77.995-4.821-111.616l-4.779-102.443h-56.405l17.152 269.632h81.216l26.432-90.005c8.384-31.189 16.811-64.747 22.827-96.384h1.173c7.616 31.189 16.747 66.816 25.621 96.747l28.757 89.621h79.616l14.848-269.611zM130.155 254.537l77.995 136.448-75.179 133.184h69.995l23.552-49.195c8.064-16.384 14.037-29.632 20.501-44.757h0.747c6.4 17.131 11.584 29.184 18.368 44.757l22.848 49.195h69.568l-76.032-131.563 80.064-138.069h-70.4l-24.448 48.811c-9.963 18.816-16.384 32.811-24 48.448h-0.789c-5.632-15.616-12.416-29.632-20.779-48.448l-22.4-48.811h-69.611zM843.285-22.135h-662.571v193.493h662.571v-193.493zM902.293 254.537h-168.448v269.632h61.205v-218.432h107.243v-51.2z" />
<glyph unicode="&#xe626;" glyph-name="change-folderSort" d="M990.187 641.268c0 0-42.155 0-56.235 0-6.293 0-5.376 9.387-5.376 9.387v28.203c0 36.971-30.080 67.093-67.093 67.093h-458.944c-3.093 0-6.827 6.187-13.525 19.2-0.981 1.941-1.984 3.883-3.029 5.803-23.381 44.309-53.76 53.632-75.115 53.632h-119.381c-30.187 0-48.192-17.536-69.44-52.117-1.387-2.261-2.731-4.544-4.096-6.827-6.827-11.541-12.011-19.712-15.957-19.712h-34.901c-37.013 0.021-67.093-30.101-67.093-67.072v-557.76c0-32.789 23.637-60.117 54.741-65.92 3.776-1.344 7.915-2.091 12.331-2.091h818.475c22.123 0 43.413 17.813 47.296 39.616l90.539 508.885c3.861 21.845-11.051 39.68-33.195 39.68zM124.437 601.63l-67.328-378.347c0 0-3.435-12.693-3.435 10.795 0 111.232 0 444.821 0 444.821 0 7.253 6.144 13.397 13.419 13.397h34.923c34.837 0 51.243 27.669 62.123 45.995 1.195 2.027 2.432 4.096 3.648 6.101 10.795 17.6 19.243 26.517 29.504 26.517h113.6c3.563 0 14.443 0 27.648-25.024 0.939-1.749 1.835-3.541 2.752-5.312 9.92-19.221 24.875-48.32 61.248-48.32h458.987c7.275 0 13.44-6.144 13.44-13.419v-26.837c0 0 0.811-10.731-5.376-10.731-174.464 0-697.835 0-697.835 0-22.144 0-43.413-17.835-47.317-39.637zM917.867 240.948l-135.765-135.744c-3.861-3.84-8.405-5.781-13.653-5.781s-9.792 1.941-13.653 5.781l-135.723 135.744c-3.861 3.84-5.781 8.405-5.781 13.632 0 5.248 1.92 9.835 5.781 13.675 3.84 3.84 8.384 5.76 13.632 5.76h271.552c5.227 0 9.792-1.877 13.632-5.76 3.84-3.84 5.76-8.427 5.76-13.675-0.021-5.248-1.941-9.813-5.781-13.632zM917.867 357.364c-3.84-3.861-8.405-5.781-13.632-5.781h-271.531c-5.248 0-9.792 1.92-13.632 5.781-3.84 3.84-5.76 8.405-5.76 13.632 0 5.248 1.92 9.792 5.76 13.653l135.744 135.765c3.84 3.84 8.384 5.76 13.675 5.76 5.248 0 9.792-1.92 13.632-5.76l135.744-135.765c3.861-3.861 5.781-8.405 5.781-13.653s-1.92-9.813-5.781-13.632z" />
<glyph unicode="&#xe627;" glyph-name="check-inFiles" d="M267.456 358.281c-119.168 0-215.701-96.555-215.701-215.701 0-119.104 96.533-215.723 215.701-215.723 119.125 0 215.701 96.619 215.701 215.701 0 119.147-96.576 215.723-215.701 215.723zM236.928 40.948l-101.675 101.611 40.64 40.661 61.035-60.949 122.027 121.984 40.619-40.683-162.645-162.624zM93.035 592.67h59.136l0.021-210.112h88.768l-0.021 210.112h59.179l-103.552 103.531-103.531-103.531zM781.205 709.684h164.885c22.549 0 33.877 27.2 17.963 43.115l-189.632 189.611c-5.205 5.205-11.413 7.552-17.707 7.552-12.992 0-25.493-10.133-25.493-25.344v-164.949c0.363-27.541 22.485-49.792 49.984-49.984zM951.381 675.87c-1.707-0.128-3.584-0.213-5.291-0.213h-164.416c-46.699 0-84.416 37.888-84.416 84.523v164.437c0 2.155 0.043 4.352 0.213 6.357v19.883h-489.429c-33.195 0-60.075-26.901-60.075-60.011v-137.344h151.061v-235.499h44.181c4.672 16.875 14.080 28.523 25.088 28.523h419.797c15.701 0 28.416-23.381 28.416-52.181s-12.715-52.053-28.416-52.053h-419.797c-9.536 0-17.941 8.704-23.040 21.973l-37.483-37.483c72.192-9.173 135.893-45.077 180.971-97.664h299.328c15.701 0 28.416-22.421 28.416-50.005 0-27.605-12.715-49.984-28.416-49.984h-243.584c8.576-27.221 13.269-56.192 13.269-86.229 0-57.536-17.152-111.040-46.379-155.925h400.768c33.088 0 60.075 27.051 60.075 60.117v628.779h-20.843z" />
<glyph unicode="&#xe628;" glyph-name="check-outFiles" d="M267.456 358.281c-119.147 0-215.701-96.555-215.701-215.701-0.021-119.104 96.555-215.723 215.701-215.723 119.125 0 215.701 96.619 215.701 215.701 0 119.147-96.576 215.723-215.701 215.723zM236.928 40.948l-101.675 101.611 40.64 40.661 61.035-60.949 122.027 121.984 40.597-40.683-162.624-162.624zM300.139 486.089h-59.157v210.112h-88.768l0.021-210.112h-59.179l103.552-103.531 103.531 103.531zM781.205 709.684h164.885c22.549 0 33.877 27.2 17.963 43.115l-189.632 189.611c-5.205 5.205-11.413 7.552-17.707 7.552-12.992 0-25.493-10.133-25.493-25.344v-164.949c0.363-27.541 22.485-49.792 49.984-49.984zM951.381 675.87c-1.707-0.128-3.584-0.213-5.291-0.213h-164.416c-46.699 0-84.416 37.888-84.416 84.523v164.437c0 2.155 0.043 4.352 0.213 6.357v19.883h-489.429c-33.195 0-60.075-26.901-60.075-60.011v-137.344h151.061v-235.499h44.181c4.693 16.875 14.101 28.523 25.088 28.523h419.797c15.701 0 28.416-23.381 28.416-52.181s-12.715-52.075-28.416-52.075h-419.819c-9.536 0-17.92 8.725-23.040 21.995l-37.483-37.461c72.171-9.195 135.915-45.099 180.971-97.685h299.349c15.701 0 28.416-22.421 28.416-50.005 0-27.605-12.715-49.984-28.416-49.984h-243.584c8.576-27.221 13.269-56.192 13.269-86.229 0-57.536-17.152-111.040-46.379-155.925h400.768c33.088 0 60.075 27.051 60.075 60.117v628.779h-20.843z" />
<glyph unicode="&#xe629;" glyph-name="copy-files" d="M-1.344 697.225v-700.608c0-27.456 22.336-49.92 49.877-49.92h534.4c27.499 0 49.899 22.464 49.899 49.92v522.133h-17.301c-1.429-0.107-3.008-0.192-4.416-0.192h-136.555c-38.784 0-70.101 31.488-70.101 70.187v136.533c0 1.792 0.043 3.627 0.171 5.312v16.491h-356.075c-27.541 0-49.899-22.379-49.899-49.856zM107.84 189.236c0 22.912 10.517 41.536 23.488 41.536h348.587c13.056 0 23.595-18.624 23.595-41.536s-10.539-41.493-23.595-41.493h-348.587c-12.971 0.021-23.488 18.581-23.488 41.493zM107.84 367.945c0 23.957 10.517 43.371 23.488 43.371h348.587c13.056 0 23.595-19.413 23.595-43.371 0-23.915-10.539-43.2-23.595-43.2h-348.587c-12.971-0.021-23.488 19.328-23.488 43.2zM611.136 546.782h-136.533c-0.064 0-0.299 0-0.384 0-22.827 0.171-41.216 18.645-41.493 41.515 0 0.043 0 0.256 0 0.384v136.597c0 12.651 10.368 21.056 21.163 21.056 5.205 0 10.347-1.941 14.677-6.293l157.461-157.44c13.227-13.205 3.797-35.819-14.891-35.819zM893.995 765.214h113.344c15.531 0 23.317 18.688 12.373 29.632l-130.368 130.368c-3.627 3.584-7.872 5.205-12.203 5.205-8.917 0-17.472-6.955-17.472-17.429v-113.387c0.192-18.944 15.403-34.24 34.325-34.389zM1010.965 741.961c-1.152-0.085-2.411-0.149-3.627-0.149h-113.045c-32.107 0-58.048 26.048-58.048 58.133v113.067c0 1.515 0.043 2.987 0.192 4.416v13.611h-294.912c-22.827 0-41.323-18.453-41.323-41.237v-101.547c0.256-0.235 0.555-0.32 0.811-0.555l134.699-134.656h263.040c10.773 0 19.499-16.043 19.499-35.904 0-19.776-8.725-35.797-19.499-35.797h-205.163v-0.896h0.597v-76.885h204.565c10.773 0 19.499-15.424 19.499-34.411 0-19.008-8.725-34.347-19.499-34.347h-204.523v-166.549h289.792c22.741 0 41.323 18.581 41.323 41.365v432.341h-14.379z" />
<glyph unicode="&#xe62a;" glyph-name="document-historyVer" d="M931.883 702.43v-677.077c0-54.315-44.181-98.496-98.496-98.496h-524.672c-54.315 0-98.517 44.181-98.517 98.496l-0.789 456.725c14.72-7.616 27.371-14.976 41.685-18.304 15.275-3.563 25.493-6.784 35.605-5.589l-2.624-432.832c0-13.589 11.051-24.619 24.619-24.619h524.672c13.589 0 24.619 11.051 24.619 24.619v677.077c0 13.589-11.072 24.619-24.619 24.619h-243.755c0 25.685-3.861 50.432-10.773 73.877h254.549c54.293 0.021 98.496-44.181 98.496-98.496zM324.437 950.857c-128.107 0-232.32-104.213-232.32-232.32s104.213-232.32 232.32-232.32 232.341 104.213 232.341 232.32-104.235 232.32-232.341 232.32zM324.437 535.476c-100.928 0-183.061 82.112-183.061 183.061s82.133 183.061 183.061 183.061c100.949 0 183.061-82.112 183.061-183.061s-82.133-183.061-183.061-183.061zM427.157 673.566c13.589 0 24.619 11.029 24.619 24.619s-11.051 24.619-24.619 24.619h-92.331v96.683c0 13.589-11.051 24.619-24.619 24.619-13.611 0-24.619-11.029-24.619-24.619v-121.301c0-13.589 11.029-24.619 24.619-24.619h116.949zM748.011 455.604h-335.957c-13.611 0-24.619-11.051-24.619-24.619s11.029-24.619 24.619-24.619h335.936c13.589 0 24.619 11.051 24.619 24.619s-11.029 24.619-24.597 24.619zM748.011 598.004h-152.853c-13.611 0-24.619-11.029-24.619-24.619s11.029-24.619 24.619-24.619h152.853c13.589 0 24.619 11.029 24.619 24.619s-11.051 24.619-24.619 24.619zM748.416 306.228h-335.936c-13.589 0-24.619-11.029-24.619-24.619s11.051-24.619 24.619-24.619h335.936c13.611 0 24.619 11.051 24.619 24.619 0 13.611-10.987 24.619-24.619 24.619zM748.416 150.686h-335.936c-13.589 0-24.619-11.051-24.619-24.619 0-13.632 11.051-24.619 24.619-24.619h335.936c13.611 0 24.619 11.008 24.619 24.619 0 13.589-10.987 24.619-24.619 24.619z" />
<glyph unicode="&#xe62b;" glyph-name="link-files" d="M944.448 486.9l-192.235-192.171c-106.112-106.176-278.229-106.176-384.341 0-16.704 16.661-29.781 35.456-41.28 54.784l89.344 89.344c4.224 4.288 9.472 6.741 14.485 9.621 6.187-21.099 16.96-41.067 33.557-57.664 52.971-53.056 139.179-52.971 192.149 0l192.171 192.149c53.013 53.013 53.013 139.221 0 192.192-52.971 52.992-139.115 52.992-192.171 0l-68.331-68.416c-55.488 21.589-115.221 27.392-173.355 18.88l145.6 145.6c106.176 106.155 278.251 106.155 384.427 0 106.048-106.069 106.048-278.165-0.021-384.32zM436.267 170.889l-68.395-68.416c-52.971-52.907-139.179-52.907-192.192 0-52.992 53.035-52.992 139.243 0 192.256l192.192 192.171c53.013 53.013 139.179 53.013 192.149 0 16.576-16.555 27.371-36.523 33.579-57.6 5.056 2.944 10.219 5.312 14.464 9.557l89.344 89.28c-11.413 19.435-24.576 38.144-41.28 54.848-106.112 106.155-278.229 106.155-384.363 0l-192.192-192.149c-106.112-106.197-106.112-278.229 0-384.405 106.155-106.133 278.229-106.133 384.384 0l145.664 145.621c-58.176-8.533-117.973-2.688-173.355 18.837z" />
<glyph unicode="&#xe62c;" glyph-name="modify-folder" d="M990.208 641.268c0 0-42.155 0-56.235 0-6.293 0-5.376 9.387-5.376 9.387v28.203c0 36.949-30.080 67.093-67.093 67.093h-458.944c-3.093 0-6.827 6.187-13.525 19.2-0.981 1.941-1.984 3.883-3.008 5.781-23.403 44.309-53.76 53.653-75.115 53.653h-119.403c-30.187 0-48.192-17.536-69.419-52.117-1.408-2.24-2.752-4.544-4.117-6.827-6.869-11.541-12.011-19.669-15.957-19.669h-34.923c-36.992 0-67.093-30.144-67.093-67.093v-557.781c0-32.789 23.637-60.117 54.763-65.92 3.755-1.344 7.893-2.091 12.331-2.091h818.475c22.123 0 43.413 17.835 47.296 39.616l90.539 508.885c3.861 21.845-11.051 39.68-33.195 39.68zM124.437 601.673l-67.328-378.389c0 0-3.435-12.672-3.435 10.795 0 111.253 0 444.843 0 444.843 0 7.275 6.144 13.419 13.419 13.419h34.923c34.859 0 51.264 27.669 62.144 45.995 1.173 2.005 2.432 4.075 3.648 6.059 10.795 17.6 19.243 26.517 29.504 26.517h113.6c3.563 0 14.443 0 27.648-25.024 0.939-1.749 1.835-3.541 2.752-5.312 9.899-19.2 24.875-48.32 61.248-48.32h458.987c7.275 0 13.44-6.144 13.44-13.419v-26.837c0 0 0.811-10.752-5.376-10.752-174.464 0-697.835 0-697.835 0-22.144 0.064-43.435-17.792-47.339-39.573zM819.712 352.905l-12.629-12.672-177.152-177.301-0.405 0.384-5.696-5.717c0 0-0.064-0.085-0.171-0.171v0c-1.856-1.664-24-19.712-147.435-58.133-0.725-0.213-1.429-0.448-2.176-0.661-2.432-0.789-4.928-1.536-7.445-2.283-1.984-0.619-4.011-1.259-6.080-1.877-1.899-0.576-3.776-1.173-5.739-1.749-4.224-1.259-8.512-2.539-12.928-3.84-9.771-2.923-32.085-9.707-39.765-2.005-8 8-0.939 30.080 1.963 39.872 1.323 4.501 2.603 8.789 3.883 13.035 0.555 1.877 1.131 3.712 1.664 5.547 0.661 2.176 1.323 4.331 1.963 6.421 0.747 2.411 1.451 4.8 2.176 7.083 0.277 0.917 0.555 1.835 0.853 2.752 40.171 129.749 57.984 147.669 57.984 147.669l5.568 5.589-0.043 0.043 189.824 189.995c13.952 13.973 36.608 13.973 50.56 0l101.227-101.312c13.973-14.059 13.973-36.715 0-50.667zM920.939 454.238l-25.323-25.344c-13.952-13.973-36.651-13.973-50.603 0l-101.227 101.333c-13.952 13.973-13.952 36.672 0 50.645l25.323 25.344c13.952 13.995 36.629 13.995 50.603 0l101.227-101.312c13.952-14.016 13.952-36.715 0-50.667zM495.403 288.862c-0.107-0.171-0.235-0.384-0.363-0.619-0.064-0.128-0.171-0.256-0.256-0.384-0.107-0.213-0.213-0.384-0.341-0.576-0.085-0.128-0.149-0.256-0.235-0.384-3.52-5.909-12.608-23.253-27.755-65.408-1.771-4.907-3.669-10.283-5.611-15.915l59.648-59.755c5.611 1.963 10.965 3.84 15.872 5.589 41.984 15.211 59.221 24.341 65.131 27.883 0.192 0.085 0.341 0.171 0.491 0.256s0.341 0.213 0.448 0.299c0.171 0.128 0.32 0.213 0.427 0.299 0.277 0.128 0.469 0.256 0.597 0.384l4.459 4.459-108.139 108.245-4.373-4.373z" />
<glyph unicode="&#xe62d;" glyph-name="move-folder" d="M990.187 641.268c0 0-42.155 0-56.235 0-6.293 0-5.376 9.387-5.376 9.387v28.203c0 36.971-30.080 67.093-67.093 67.093h-458.944c-3.093 0-6.827 6.187-13.525 19.2-0.981 1.941-1.984 3.883-3.008 5.803-23.403 44.309-53.76 53.632-75.115 53.632h-119.403c-30.187 0-48.192-17.536-69.419-52.117-1.408-2.261-2.752-4.544-4.117-6.827-6.848-11.541-11.989-19.691-15.957-19.691h-34.901c-36.992 0-67.093-30.123-67.093-67.093v-557.76c0-32.789 23.637-60.117 54.763-65.92 3.755-1.344 7.893-2.091 12.331-2.091h818.453c22.123 0 43.413 17.813 47.296 39.616l90.539 508.885c3.861 21.845-11.051 39.68-33.195 39.68zM124.437 601.652l-67.328-378.368c0 0-3.435-12.693-3.435 10.795 0 111.232 0 444.821 0 444.821 0 7.275 6.144 13.419 13.419 13.419h34.901c34.859 0 51.264 27.669 62.144 45.995 1.195 2.005 2.432 4.075 3.648 6.080 10.795 17.6 19.243 26.517 29.504 26.517h113.6c3.563 0 14.443 0 27.648-25.024 0.939-1.749 1.835-3.541 2.752-5.312 9.899-19.221 24.875-48.32 61.248-48.32h458.987c7.275 0 13.44-6.144 13.44-13.419v-26.837c0 0 0.811-10.731-5.376-10.731-174.464 0-697.835 0-697.835 0-22.144 0.021-43.435-17.813-47.317-39.616zM497.173 241.204h-148.245v-98.816l-148.224 148.203 148.224 148.224v-98.795h148.245v-98.816zM749.419 142.409v98.816h-148.245v98.837h148.245v98.795l148.203-148.224-148.203-148.224z" />
<glyph unicode="&#xe62e;" glyph-name="refresh" d="M613.205 945.182v0 0c0 0-0.021 0-0.043 0h-0.043c-3.989 0.832-8.021 1.216-12.011 1.216-28.416 0-53.653-20.011-59.456-48.789-0.832-4.032-1.237-8.085-1.237-12.096 0-28.416 19.947-53.611 48.747-59.499h0.021c185.067-37.227 313.301-200.725 313.301-382.592 0-25.451-2.539-51.264-7.723-77.184l-0.021-0.043c-37.333-185.088-200.789-313.344-382.635-313.344-25.472 0-51.328 2.496-77.291 7.744-185.088 37.248-313.323 200.661-313.323 382.592 0 25.472 2.517 51.328 7.744 77.291v-0.021c8 39.659 22.443 77.269 41.771 112.107l0.043-0.491v-0.021c3.669-30.997 29.888-53.739 60.373-53.76 2.304 0 4.629 0.149 6.955 0.405h0.021c31.019 3.627 53.824 29.824 53.845 60.373 0 2.304-0.128 4.651-0.405 6.997l-17.707 152.704v-0.021c-3.072 26.859-23.125 47.616-48.299 52.651h0.043c-3.968 0.811-8 1.195-12.032 1.216-2.283 0-4.587-0.128-6.891-0.384h-0.064l-152.789-17.707c-30.955-3.627-53.781-29.781-53.781-60.309 0-2.347 0.128-4.693 0.427-7.061h-0.021c3.648-30.997 29.867-53.781 60.395-53.781 2.304 0 4.629 0.128 6.933 0.384h0.043l10.091 1.173c-32.533-51.968-55.787-109.525-68.011-170.389-6.869-34.005-10.155-67.947-10.155-101.419 0-238.72 168.043-452.693 410.795-501.696 33.984-6.869 67.904-10.197 101.333-10.197 238.677 0.021 452.651 168.085 501.739 410.837 6.827 33.984 10.155 67.904 10.155 101.312-0.043 238.784-168.043 452.779-410.837 501.803z" />
<glyph unicode="&#xe62f;" glyph-name="undo-pendingChanges" d="M978.027 35.593c1.579-1.6 2.411-3.541 2.411-5.76 0-2.197-0.832-4.075-2.411-5.696l-53.76-53.76c-1.643-1.579-3.499-2.411-5.568-2.411-1.856 0-3.797 0.832-5.888 2.411l-76.608 76.629-76.629-76.629c-1.643-1.579-3.52-2.411-5.568-2.411-1.856 0-3.84 0.832-5.845 2.411l-53.781 53.76c-1.408 1.344-2.112 3.349-2.112 5.867 0 2.325 0.683 4.181 2.112 5.568l76.608 76.629-76.288 76.629c-1.579 1.408-2.411 3.221-2.411 5.525 0 2.56 0.832 4.544 2.411 5.909l53.461 53.76c1.579 1.579 3.52 2.411 5.845 2.411 2.261 0 4.139-0.832 5.568-2.411l76.629-76.629 76.608 76.629c1.621 1.579 3.499 2.411 5.76 2.411 2.176 0 4.053-0.832 5.717-2.411l53.76-53.76c1.579-1.6 2.411-3.499 2.411-5.696 0-2.219-0.832-4.16-2.411-5.76l-76.629-76.629 76.608-76.587zM774.144 706.057h167.701c22.912 0 34.411 27.669 18.24 43.883l-192.832 192.789c-5.333 5.312-11.669 7.701-18.005 7.701-13.248 0-25.963-10.304-25.963-25.792v-167.744c0.405-28.011 22.912-50.645 50.859-50.837zM260.779 360.82c-119.979 0-217.216-97.237-217.216-217.216 0-119.936 97.237-217.216 217.216-217.216s217.216 97.28 217.216 217.216c-0.021 119.979-97.237 217.216-217.216 217.216zM230.037 41.246l-102.4 102.357 40.939 40.939 61.461-61.376 122.88 122.837 40.875-40.96-163.755-163.797zM174.315 719.988l-105.301-105.259h60.181v-214.656h90.283l-0.043 214.656h60.181zM662.421 51.977l0.171 0.192 58.155 58.091-57.621 57.877 0.149 0.149c-3.477 3.371-6.656 7.445-8.661 12.075-2.411 5.44-3.371 11.136-3.349 16.149 0 4.672 0.725 10.176 3.072 15.787 0.704 1.771 1.771 3.413 2.816 5.056h-146.859c9.216-27.584 8.448-59.371 7.147-90.048-2.667-62.677-32.683-111.275-64.171-156.224h233.451l-23.936 23.936c-4.309 4.267-7.531 9.728-9.259 14.827-1.749 5.163-2.261 9.92-2.261 14.016 0 4.331 0.64 9.301 2.496 14.315 1.792 5.035 4.885 9.984 8.661 13.803zM947.221 671.689c-1.749-0.149-3.669-0.235-5.376-0.235h-167.253c-47.509 0-85.824 38.528-85.824 85.952v167.232c0 2.176 0.043 4.416 0.213 6.464v20.203h-497.707c-33.749 0-61.077-27.349-61.077-61.035v-139.648h153.6v-239.509h44.928c4.757 17.152 14.336 29.013 25.493 29.013h426.923c16 0 28.885-23.787 28.885-53.077s-12.885-52.949-28.885-52.949h-426.923c-9.707 0-18.219 8.875-23.424 22.379l-51.029-51.029c69.952-6.037 132.288-38.101 177.664-86.443h323.691c16 0 28.885-22.784 28.885-50.837 0-6.336-0.725-12.331-1.941-17.92l26.304-26.325 58.197 58.219c6.763 6.933 18.027 11.819 28.352 11.584 5.141 0.021 10.667-1.045 15.552-3.115 4.907-2.069 9.131-4.992 12.395-8.085l0.384-0.363 19.179-19.2v408.725h-21.205z" />
<glyph unicode="&#xe630;" glyph-name="view-files" d="M512 773.406c-225.856 0-420.523-133.12-509.931-325.269-2.752-5.803-2.752-12.629 0-18.56 89.408-192.128 284.075-325.291 509.931-325.291s420.523 133.141 509.931 325.269c2.752 5.824 2.752 12.629 0 18.56-89.408 192.149-284.075 325.291-509.931 325.291zM512 207.988c-127.552 0-230.805 103.381-230.805 230.805 0 127.552 103.381 230.805 230.805 230.805 127.552 0 230.805-103.381 230.805-230.805s-103.36-230.805-230.805-230.805zM643.691 505.972l-131.691-67.115v147.797c-81.6 0-147.755-66.155-147.755-147.755 0-81.579 66.155-147.755 147.755-147.755s147.755 66.176 147.755 147.755c0 24.171-5.803 46.955-16.064 67.072z" />
<glyph unicode="&#xe631;" glyph-name="pause" d="M73.152-73.143h292.565v1024h-292.565v-1024zM658.283 950.857v-1024h292.565v1024h-292.565z" />
<glyph unicode="&#xe632;" glyph-name="play-single" d="M109.717 950.857v-1024l804.565 512z" />
<glyph unicode="&#xe633;" glyph-name="previous-single" d="M914.283 950.857v-1024l-804.565 512z" />
<glyph unicode="&#xe634;" glyph-name="doc-package" d="M450.56 930.377h-245.76l-204.8-327.68h388.267zM1024 602.697l-204.8 327.68h-245.76l62.293-327.68zM635.733 189.684l-49.067 43.84-29.995-45.333-38.443 45.333-37.547-43.328-35.328 42.005-57.088-42.517zM388.267 189.684v350.72h-388.267v-593.067h1024v593.067h-388.267v-350.72zM388.267 602.697h247.467v-62.293h-247.467v62.293z" />
<glyph unicode="&#xe635;" glyph-name="check-taskStatus" d="M125.632 137.31v705.152h569.408v-444.395l108.48 89.621v408.939c0 29.952-24.235 54.229-54.229 54.229h-677.931c-29.973 0-54.229-24.277-54.229-54.229v-813.547c0-29.909 24.277-54.229 54.229-54.229h388.757l-76.651 108.459h-257.835zM996.288 437.321c-12.48 11.776-31.552 12.309-44.715 1.472l-310.059-256.256-206.549 124.011c-13.739 8.085-31.232 5.781-42.24-5.995-10.837-11.776-12.011-29.461-2.752-42.453l223.829-316.907c6.315-8.853 16.533-14.080 27.307-14.315 0.171 0 0.235 0 0.405 0 10.773 0 20.843 5.077 27.221 13.781l331.605 452.011c10.005 13.867 8.405 32.875-4.053 44.651zM573.035 761.012h-325.419c-29.995 0-54.229-24.277-54.229-54.272 0-29.888 24.235-54.165 54.229-54.165h325.419c29.931 0 54.251 24.277 54.251 54.165 0 29.995-24.299 54.272-54.251 54.272zM573.035 520.137h-325.419c-29.995 0-54.229-24.32-54.229-54.229 0-29.973 24.235-54.272 54.229-54.272h325.419c29.931 0 54.251 24.299 54.251 54.272 0 29.909-24.299 54.229-54.251 54.229z" />
<glyph unicode="&#xe636;" glyph-name="create-view" d="M0.021 812.766v-355.904h424.128c4.885 15.189 11.072 29.781 18.027 43.883h-398.272v268.117h801.707v-110.315c16.256-6.272 31.936-13.867 46.869-22.635v176.853h-892.459zM55.765 139.273v148.245h361.131c-3.243 14.379-5.568 28.992-6.805 43.925h-410.069v-236.053h546.155c-18.304 12.8-35.115 27.627-50.368 43.883h-440.043zM730.283 652.382c-161.963 0-293.717-131.776-293.717-293.739 0-161.877 131.755-293.717 293.717-293.717 161.941 0 293.696 131.84 293.696 293.717 0 161.963-131.755 293.739-293.696 293.739zM863.232 332.105h-106.368v-106.325h-53.12v106.325h-106.368v53.163h106.368v106.304h53.12v-106.304h106.368v-53.163z" />
<glyph unicode="&#xe637;" glyph-name="folder-option" d="M990.251 641.246c0 0-42.261 0-56.235 0-6.336 0-5.333 9.365-5.333 9.365v28.181c0 37.013-30.165 67.093-67.179 67.093h-458.944c-3.093 0-6.827 6.229-13.547 19.221l-2.987 5.781c-23.424 44.331-53.781 53.653-75.115 53.653h-119.424c-30.208 0-48.171-17.536-69.419-52.117l-4.117-6.805c-6.848-11.563-11.989-19.712-15.936-19.712h-34.944c-37.013 0-67.072-30.123-67.072-67.093v-557.781c0-32.789 23.637-60.117 54.763-65.92l12.309-1.984h630.379l-170.901 191.381-118.677 127.893 574.741 2.112 40.747 227.115c3.904 21.76-11.051 39.616-33.109 39.616zM867.115 622.153c-174.4 0-697.792 0-697.792 0-22.123 0-43.435-17.835-47.317-39.595l-64.917-359.296c0 0-3.456-12.715-3.456 10.731 0 111.232 0 444.843 0 444.843 0 7.296 6.165 13.419 13.44 13.419h34.944c34.88 0 51.264 27.691 62.101 45.995l3.648 6.101c10.837 17.6 19.264 26.539 29.525 26.539h113.6c3.563 0 14.464 0 27.669-25.045l2.731-5.291c9.899-19.264 24.875-48.341 61.248-48.341h458.944c7.317 0 13.44-6.123 13.44-13.419l-2.432-45.931c0 0.021 0.853-10.709-5.376-10.709zM601.963 289.438h422.016l-211.008-236.288z" />
<glyph unicode="&#xe638;" glyph-name="license-manage" d="M803.52 832.926h-188.693v-94.336h141.568v-212.587c24.619-3.072 42.752-15.744 54.741-25.749 8.683 2.133 19.563 4.437 31.68 4.437l7.872-0.939v281.984c0.021 26.048-21.099 47.189-47.168 47.189zM461.781-34.999c-11.072 20.309-11.072 44.373-1.365 65.941h-317.312v707.627h141.504v94.357h-188.693c-26.069 0-47.189-21.12-47.189-47.189v-801.984c0-26.069 21.12-47.189 47.189-47.189h394.667c-11.989 6.635-22.123 16.192-28.8 28.437zM544.085 950.857h-188.672c-13.056 0-23.616-10.56-23.616-23.595v-259.477c0-7.872 3.947-15.253 10.496-19.627 1.685-1.131 42.069-27.541 107.435-27.541s105.749 26.411 107.435 27.541c6.635 4.373 10.496 11.755 10.496 19.627v259.477c-0.021 13.035-10.517 23.595-23.573 23.595zM520.469 682.014c-12.992-5.803-37.568-14.229-70.677-14.229s-57.749 8.448-70.805 14.272v221.589h141.504v-221.632zM449.664 523.060c-60.373 0-110.507-46.187-110.507-104.683 0-24.896 0-26.389 0-26.389s-10.816-9.557-8.448-30.315c3.179-27.221 31.381-41.408 31.381-41.408s7.381-39.872 28.565-59.179c8.491-55.317-31.317-61.248-63.445-71.68-52.117-17.003-99.072-20.053-99.072-89.067 0-14.123 71.936-27.691 190.635-29.696l15.061 96.747-7.616 12.117 0.491 5.44 19.755 21.312h6.507l19.755-21.312 0.448-5.44-7.552-12.117 14.997-96.747 1.685 0.064 22.571 38.997-1.621 2.688c-16.064 27.627-11.627 55.744-7.808 73.195-11.691 13.568-28.053 34.752-28.053 65.493 0 31.68 17.003 54.315 28.757 68.629-3.883 17.429-8.491 45.781 7.744 73.92 14.635 25.003 37.739 35.392 54.613 41.067-8.427 50.475-54.229 88.363-108.843 88.363zM973.205 7.433c0 0-59.563 102.379-70.187 120.683 12.117 3.755 25.003 6.933 30.443 16.32 8.875 15.509-6.997 40.811-2.816 57.365 4.245 17.131 29.76 31.872 29.76 49.259 0 16.875-26.368 36.629-30.635 53.568-4.309 16.619 11.691 42.048 2.688 57.344-9.003 15.552-38.933 14.251-51.243 26.197-12.693 12.117-12.693 42.069-28.011 50.197-15.253 8.256-40.32-8.384-57.323-4.501-16.875 3.947-31.936 29.376-49.557 29.376-17.877 0-46.315-28.885-50.688-29.803-17.195-4.011-42.133 12.437-57.493 4.245-15.253-8.192-15.189-38.080-27.819-50.325-12.309-11.819-42.24-10.688-51.243-26.069-8.939-15.509 6.997-40.917 2.88-57.472-4.245-16.619-30.613-33.493-30.613-52.757 0-17.259 25.557-32 29.867-49.067 4.245-16.619-11.627-42.069-2.688-57.429 4.928-8.448 16-11.883 27.115-15.189l2.069-4.245c-7.616-13.184-68.608-118.571-68.608-118.571-4.885-8.384-0.939-15.509 8.747-15.936l47.36-2.005c9.685-0.384 21.867-7.381 26.944-15.616l25.323-40.064c5.184-8.192 13.312-8.128 18.197 0.32l70.741 122.197 3.563 0.683c7.744-6.635 18.496-13.184 27.499-13.184 8.875 0 17.003 6.187 25.067 13.056l3.435-0.555 70.677-121.493c4.928-8.32 13.12-8.555 18.24-0.448l25.195 40.256c5.184 8.192 17.323 15.253 27.008 15.616l47.317 2.133c9.664 0.427 13.611 7.552 8.789 15.915zM824.576 117.321c-52.373-30.443-115.179-27.243-163.243 3.115-70.251 44.992-93.44 138.304-51.179 211.179 42.816 73.984 136.811 100.053 211.307 59.413l1.195-0.747 1.685-0.875c22.933-13.248 42.88-32.448 57.195-56.981 43.541-74.987 18.048-171.477-56.96-215.104zM797.333 341.129l-0.555 0.256c-30.677 17.792-69.696 19.051-102.507 0-48.555-28.245-65.131-90.816-36.821-139.435 8.683-14.741 20.437-26.688 34.069-35.072l3.563-2.24c48.619-28.117 111.125-11.499 139.371 37.12 28.139 48.683 11.499 111.253-37.12 139.371z" />
<glyph unicode="&#xe639;" glyph-name="lock2" d="M857.451 537.353h-19.861v93.376c0 172.715-137.152 316.992-308.437 320.064-4.651 0.064-14.016 0.064-18.688 0-171.328-3.051-308.373-147.349-308.373-320.064v-93.376h-19.925c-30.784 0-55.851-31.744-55.851-70.933v-468.416c-0.021-39.147 25.067-71.147 55.851-71.147h675.307c30.848 0 55.851 32 55.851 71.147v468.416c0 39.168-25.003 70.933-55.872 70.933zM583.040 232.713v-141.568c0-16.149-13.589-29.845-29.717-29.845h-66.965c-16.256 0-29.824 13.717-29.824 29.845v141.568c-15.723 15.445-24.896 36.864-24.896 60.565 0 44.864 34.709 83.435 78.827 85.291 4.672 0.149 14.037 0.149 18.709 0 44.16-1.856 78.869-40.448 78.869-85.291 0-23.723-9.152-45.12-25.003-60.565zM706.048 537.353h-372.437v93.376c0 102.848 83.605 187.968 186.219 187.968 102.635 0 186.219-85.099 186.219-187.968v-93.376z" />
<glyph unicode="&#xe63a;" glyph-name="manage-role" d="M543.403 53.641c-18.219 23.253-21.333 54.379-10.155 80.448-26.411 11.179-46.101 35.499-49.088 64.128-2.475 21.76-2.368 43.627 0 63.317 2.901 30.379 22.4 55.125 49.344 65.813-10.453 24.491-7.488 52.693 7.829 74.496v25.472c23.872 28.459 41.024 62.187 51.84 97.749l10.752 13.099c20.565 20.672 24.875 55.68 9.365 80.619l-5.803 11.627c0 31.872 0.128 63.744 0 95.403-0.811 38.272-11.947 78.059-38.805 106.56-21.504 22.848-51.264 36.501-82.027 42.304-38.805 7.467-79.445 6.997-117.867-2.667-33.216-8.491-64.619-28.053-83.989-56.981-17.152-25.131-24.555-55.723-25.963-85.717-0.469-32.32-0.085-64.683-0.149-97.067 0.789-6.507-4.757-10.773-7.253-16.341-14.592-26.432-8.149-62.699 15.275-82.027 6.037-4.16 7.147-11.627 9.344-18.069 10.219-31.979 27.285-61.589 48.747-87.339v-36.011c0-59.755-48.448-108.245-108.245-108.245h-54.144c0 0-98.091-27.072-162.389-162.432v-54.123c0-30.123 24.192-54.059 54.080-54.059h529.003c-14.571 12.373-28.437 25.557-39.701 40.043zM1022.464 255.582c-0.683 6.443-8.256 11.371-14.805 11.371-21.248 0-40.235 12.373-47.915 31.68-8.256 19.819-2.944 42.88 13.056 57.323 4.693 4.565 5.44 12.181 1.131 17.493-10.688 13.696-23.189 26.197-36.629 37.056-5.312 4.181-13.12 3.627-17.621-1.429-13.696-15.317-38.635-20.992-57.877-13.056-19.819 8.448-32.384 28.672-31.317 50.389 0.555 6.784-4.309 12.757-11.435 13.504-17.003 1.963-34.624 2.069-52.011 0.085-6.677-0.747-11.755-6.464-11.371-13.227 0.619-21.461-12.053-41.323-31.872-49.451-18.88-7.616-43.563-2.133-57.557 13.12-4.309 4.992-11.947 5.568-17.323 1.429-13.931-10.944-26.496-23.445-37.376-37.12-4.501-5.184-3.819-12.928 1.259-17.493 16.064-14.635 21.248-37.803 12.992-57.877-8.128-19.008-27.819-31.317-50.624-31.317-7.211 0.256-12.587-4.693-13.205-11.307-2.112-17.429-2.112-35.179-0.171-52.757 0.725-6.571 8.555-11.435 15.189-11.435 20.181 0.555 39.616-11.947 47.552-31.616 8.32-19.947 3.008-43.008-12.821-57.429-4.928-4.565-5.568-12.245-1.493-17.493 10.752-13.696 23.253-26.24 36.821-37.056 5.376-4.245 12.992-3.627 17.621 1.323 13.867 15.253 38.507 20.992 57.685 12.992 20.053-8.256 32.619-28.629 31.509-50.304-0.491-6.805 4.565-12.757 11.371-13.568 8.747-1.067 17.621-1.493 26.624-1.493 8.619 0 16.939 0.384 25.429 1.323 6.677 0.747 11.755 6.635 11.435 13.312-0.747 21.504 12.011 41.365 31.744 49.429 19.179 7.808 43.691 2.133 57.365-13.056 4.501-4.992 12.181-5.568 17.493-1.429 13.867 10.88 26.496 23.317 37.504 37.12 4.181 5.248 3.691 12.928-1.429 17.493-16.064 14.677-21.248 37.867-12.928 57.813 8.064 18.88 26.923 31.509 47.488 31.509l2.816-0.064c6.677-0.555 12.821 4.501 13.504 11.243 2.24 17.664 2.24 35.349 0.192 52.971zM792.597 151.966c-42.752 0-77.376 34.688-77.376 77.44 0 42.56 34.624 77.248 77.376 77.248 42.56 0 77.184-34.688 77.184-77.248-0.043-42.752-34.624-77.44-77.184-77.44z" />
<glyph unicode="&#xe63b;" glyph-name="message-board" d="M981.461 701.876l-428.821-392.96c-22.869-21.163-60.288-21.163-83.157 0l-428.8 392.96c-14.592 13.397-40.683 1.771-40.683-22.507v-613.355c0-33.28 24.064-60.544 53.44-60.544h917.099c29.397 0 53.461 27.264 53.461 60.544v613.355c-0.149 27.093-25.344 38.187-42.539 22.507zM108.608 834.206l362.155-331.755c22.827-20.757 60.288-20.757 83.157 0l361.984 331.755c22.784 20.736 17.557 38.016-11.84 38.016h-783.637c-29.696-0.213-34.688-17.28-11.819-38.016z" />
<glyph unicode="&#xe63c;" glyph-name="owner-user" d="M318.677 623.796c-3.307-45.163-2.069-49.088 11.819-102.443-7.68-4.757-20.501-19.755-17.323-46.443 5.995-49.664 26.304-62.251 39.189-63.317 4.992-46.315 35.563-101.248 52.011-109.803 0-33.131 1.195-58.432-2.069-94.635-39.36-105.856-304.981-76.117-317.312-280.299h853.995c-12.309 204.181-276.821 174.443-316.117 280.32-3.307 36.181-2.005 61.504-2.005 94.635 16.32 8.555 45.76 63.467 50.688 109.803 12.928 1.067 33.259 13.653 39.253 63.317 3.179 26.688-9.621 41.685-17.323 46.443 10.432 31.531 16.555 43.179 11.883 102.443zM609.621 825.289l-97.621 125.568-97.621-125.568-125.568 125.568 27.819-258.069h390.741l27.947 258.069z" />
<glyph unicode="&#xe63d;" glyph-name="permission" d="M896 566.857h-580.928v59.072c0 108.608 88.341 196.928 196.928 196.928 71.552 0 133.803-38.656 168.256-95.936l1.323 0.96c11.691-16.533 29.931-28.032 51.627-28.032 35.307 0 64 28.651 64 64 0 8.619-1.813 16.875-4.928 24.448l-0.683 1.408c-2.816 6.4-6.869 12.032-11.691 17.088-58.283 86.464-155.776 144.064-267.904 144.064-179.477 0-324.928-145.472-324.928-324.928v-59.072h-59.072c-35.307 0-64-28.693-64-64v-512c0-35.307 28.693-64 64-64h768c35.307 0 64 28.693 64 64v512c0 35.307-28.693 64-64 64zM512 118.857c-70.72 0-128 57.259-128 128s57.28 128 128 128c70.741 0 128-57.259 128-128s-57.259-128-128-128z" />
<glyph unicode="&#xe63e;" glyph-name="recycle" d="M275.669 373.876l77.611-45.781-100.971 200.363-226.069-6.72 73.003-43.307-99.243-183.765c0 0 79.723-144.491 134.101-230.741 22.165-35.243 51.925-55.232 80.448-55.232h290.304v209.259l-315.349 0.085 86.165 155.84zM542.912 610.42l220.032-13.184 105.451 199.979-73.643-42.197-111.083 176.896c0 0-164.971 1.92-266.773-2.987-41.621-2.005-73.664-18.005-87.701-42.795l-143.019-252.651 182.187-103.147 155.349 274.389 93.12-151.765-73.92-42.539zM1015.872 355.145l-138.112 255.317-184.021-99.584 149.845-277.419-178.048 1.685 2.645 80.725-127.509-174.805 113.408-195.627 3.371 84.757 208.875 0.107c0 0 89.216 138.965 139.136 227.691 20.608 36.373 23.979 71.979 10.411 97.152z" />
<glyph unicode="&#xe63f;" glyph-name="recycle-settings" d="M261.803 348.148l73.621-43.563-95.808 190.272-214.656-6.4 69.291-41.131-94.251-174.421c0 0 75.712-137.259 127.275-219.072 21.12-33.621 49.365-52.437 76.437-52.437h275.669v198.635l-299.413 0.064 81.835 148.053zM515.563 572.681l208.896-12.523 100.181 189.952-69.995-40.064-105.429 167.957c0 0-156.629 1.813-253.355-2.88-39.531-1.877-69.973-17.067-83.285-40.597l-135.787-239.979 172.949-97.941 147.584 260.565 88.384-144.128-70.144-40.363zM1022.464 249.396c-0.555 6.251-7.808 11.072-14.315 11.072-20.565 0-39.061 12.053-46.507 30.805-8 19.243-2.88 41.621 12.757 55.616l1.003 16.939c-10.304 13.248-22.443 25.365-35.499 36.011l-17.131-1.429c-13.248-14.805-37.44-20.373-56.128-12.693-19.307 8.256-31.509 27.883-30.507 48.896 0.683 6.635-4.117 12.352-11.008 13.056-16.555 2.005-33.621 2.133-50.432 0.128-6.571-0.661-11.435-6.251-11.072-12.821 0.555-20.779-11.691-40.085-30.997-47.979-18.304-7.381-42.24-2.069-55.744 12.757l-16.875 1.365c-13.568-10.624-25.621-22.677-36.245-36.011l1.195-17.003c15.552-14.123 20.629-36.693 12.629-56.128-7.936-18.56-26.944-30.507-49.131-30.507-6.997 0.384-12.181-4.437-12.821-10.944-2.005-16.875-2.005-34.133-0.192-51.179 0.683-6.379 8.32-11.072 14.805-11.072 19.499 0.491 38.379-11.627 46.123-30.677 8.064-19.435 2.88-41.749-12.437-55.68l-1.493-17.067c10.432-13.312 22.571-25.429 35.691-35.947l17.131 1.259c13.568 14.741 37.376 20.373 56.064 12.629 19.499-8 31.616-27.819 30.507-48.811-0.491-6.635 4.437-12.373 11.072-13.184 8.491-1.003 17.131-1.429 25.877-1.429 8.384 0 16.448 0.384 24.683 1.323 6.443 0.683 11.371 6.443 11.072 12.885-0.683 20.885 11.691 40.128 30.805 48 18.624 7.616 42.368 2.133 55.616-12.693l17.067-1.365c13.44 10.496 25.621 22.635 36.373 36.011l-1.365 16.939c-15.616 14.315-20.629 36.757-12.565 56.192 7.808 18.24 26.133 30.507 46.123 30.507l2.624-0.064c6.571-0.555 12.565 4.437 13.12 10.944 2.176 17.109 2.176 34.347 0.128 51.349zM799.467 148.894c-41.429 0-75.008 33.685-75.008 75.179 0 41.323 33.557 74.944 75.008 74.944 41.323 0 74.88-33.621 74.88-74.944-0.085-41.493-33.579-75.179-74.88-75.179z" />
<glyph unicode="&#xe640;" glyph-name="retention-management" d="M405.931 409.716l34.752-20.608-45.269 89.963-101.44-3.008 32.768-19.456-44.523-82.432c0 0 35.819-64.917 60.117-103.552 10.005-15.829 23.36-24.811 36.139-24.811h130.304v93.909l-141.525 0.064 38.677 69.931zM525.845 515.828l98.752-5.909 47.403 89.771-33.131-18.944-49.749 79.36c0 0-74.112 0.853-119.829-1.344-18.667-0.875-33.067-8.085-39.317-19.157l-64.213-113.451 81.771-46.229 69.781 123.157 41.856-68.096-33.323-19.157zM738.091 401.289l-61.888 114.539-82.517-44.672 67.221-124.416-79.851 0.725 1.045 36.224-57.173-78.464 50.923-87.787 1.493 38.037h93.76c0 0 40 62.379 62.379 102.229 9.259 16.299 10.795 32.299 4.608 43.584zM311.040 637.15c0.64 5.995-2.389 11.904-7.765 14.869l-83.115 45.845c72.448 84.352 178.88 135.253 291.861 135.253 212.203 0 384.811-172.629 384.811-384.789 0-28.395 22.997-51.456 51.328-51.456 28.523 0 51.456 23.061 51.456 51.456-0.043 268.864-218.752 487.595-487.616 487.595-139.051 0-270.891-60.245-362.453-161.643l-38.741 70.144c-2.88 5.333-8.747 8.384-14.848 7.701-6.059-0.597-11.093-4.843-12.843-10.752l-82.496-280.917c-1.579-5.227-0.085-10.987 3.797-14.933 3.861-3.819 9.621-5.333 14.891-3.755l280.917 82.581c5.888 1.621 10.112 6.741 10.816 12.8zM1019.541 332.19c-3.819 3.883-9.643 5.397-14.912 3.776l-280.875-82.517c-5.867-1.771-10.069-6.805-10.795-12.885-0.597-6.059 2.411-11.84 7.765-14.848l83.115-45.867c-72.448-84.288-178.88-135.125-291.861-135.125-212.16 0-384.747 172.501-384.747 384.683 0 28.459-22.997 51.456-51.413 51.456-28.395 0-51.456-22.997-51.456-51.456 0-268.864 218.773-487.616 487.637-487.616 139.072 0 270.869 60.245 362.432 161.643l38.763-70.080c2.859-5.397 8.725-8.384 14.784-7.765 6.208 0.661 11.115 4.864 12.928 10.752l82.475 280.917c1.579 5.355 0.171 10.923-3.84 14.933z" />
<glyph unicode="&#xe641;" glyph-name="rfi" d="M849.323 846.196l-256.875-355.349 58.197-18.304 250.411 337.365-51.733 36.288zM910.571 802.249l-244.757-338.56 30.123-51.2 263.68 355.264-49.045 34.496zM557.995 334.409l28.821 138.112 60.011-18.496 35.307-52.267-124.139-67.349zM915.307 934.558l-18.688-26.432 108.501-78.976c6.123 9.152 12.437 18.197 18.88 27.307-29.803 34.304-65.259 61.504-108.693 78.101zM184.256 705.481h485.248l69.675 117.376h-629.845c-60.139 0-109.333-49.259-109.333-109.611v-660.971c0-60.032 49.131-109.12 109.333-109.12h693.227c60.181 0 109.376 49.003 109.376 109.12v513.856l-92.373-118.741v-327.765c0-35.883-29.76-65.621-65.493-65.621h-569.813c-35.883 0-65.557 29.504-65.557 65.536v520.363c-0.043 35.669 22.016 65.579 65.557 65.579zM244.053 282.846h84.096c6.4 0 12.309-0.619 17.835-2.325 5.803-1.92 10.624-4.501 14.912-7.787 4.309-3.712 7.659-7.744 10.24-12.885 2.603-5.077 3.84-10.965 3.84-18.005 0-3.712-0.491-7.339-1.323-11.093s-2.24-7.040-4.011-10.24c-1.685-3.051-3.904-6.123-6.635-8.491-2.837-2.795-5.909-4.672-9.557-5.995 5.931-2.24 10.816-6.507 14.4-12.8 3.648-6.251 5.803-13.867 6.677-22.827 0.085-2.005 0.213-4.011 0.384-6.997 0.149-2.88 0.32-5.632 0.683-8.875 0.405-2.752 0.853-5.76 1.344-8.256 0.555-2.88 1.259-5.248 2.304-6.784h-44.181c-1.067 3.755-1.813 7.296-2.368 11.008-0.448 3.627-0.896 7.552-1.195 11.285-0.256 3.243-0.619 6.635-1.088 9.963-0.469 3.371-1.344 6.421-2.688 9.045-1.365 2.837-3.349 4.757-5.76 6.251-2.539 1.877-5.995 2.581-10.304 2.581h-23.531v-50.133h-44.096l0.021 143.36zM288.192 220.361h23.189c2.027 0 4.181 0 6.592 0.384 2.219 0.427 4.373 0.875 6.229 1.749 1.899 1.003 3.477 2.667 4.757 4.544 1.259 1.707 1.877 4.331 1.877 7.573 0 4.629-1.493 8-4.587 10.411-3.093 2.496-8.875 3.883-17.28 3.883h-20.757v-28.544zM450.752 282.846h110.805v-36.843h-66.688v-17.792h57.259v-34.005h-57.259v-54.827h-44.117v143.467zM635.008 282.846h44.181v-143.467h-44.181v143.467zM865.557 865.289l17.749 25.941 108.011-78.336-18.752-26.56-107.008 78.955z" />
<glyph unicode="&#xe642;" glyph-name="submittals" d="M679.040 705.929h202.432l-202.432 244.181zM530.283-55.82c-4.352 1.003-7.488 5.056-7.488 9.813 0 163.072 200.597 189.056 237.973 186.496v74.752c0 3.755 1.941 7.189 4.992 8.811 3.008 1.749 6.635 1.493 9.429-0.448l190.912-139.243c2.496-1.877 4.053-4.928 4.053-8.384 0-3.243-1.557-6.315-4.053-8.256l-190.848-139.243c-2.88-2.005-6.507-2.197-9.493-0.491-3.008 1.749-4.885 5.248-4.885 8.811l0.128 85.995c-30.123-0.256-54.869 0.448-75.627-2.24-99.307-12.693-143.723-67.691-144.853-70.507v0c-1.493-3.691-4.885-6.059-8.491-6.059-0.533 0.021-1.216 0.021-1.749 0.192zM579.733 179.444c26.197 12.928 52.053 22.315 74.944 28.992 15.125 4.437 28.885 7.744 40.811 10.197v65.557c0.064 8.256 2.069 16.256 6.059 23.381 3.947 6.933 9.749 13.184 17.493 17.621l-0.064 0.064c0.064 0 0.192 0 0.192 0.064 0.128 0 0.128 0.064 0.192 0.128h0.064c6.805 3.819 14.635 5.867 22.315 5.867 9.493 0 18.688-3.008 26.197-8.256l0.384-0.256 109.248-79.68v398.165h-266.091v309.568h-557.696v-997.781h364.139c1.685 24.491 6.293 47.189 13.376 68.053 9.109 26.624 22.187 50.069 37.739 70.379 31.083 40.555 71.445 68.437 110.699 87.936zM194.795 510.75h545.685v-69.995h-545.685v69.995zM194.795 371.508h424.128v-70.059h-424.128v70.059zM450.539 168.436h-255.744v69.995h255.744v-69.995z" />
<glyph unicode="&#xe643;" glyph-name="task" d="M846.464 728.692h-121.451v18.261c0 35.947-29.035 65.067-65.003 65.067h-31.040c-0.875 63.509-52.587 114.475-116.096 114.475-63.467 0-115.179-50.965-116.096-114.475h-31.061c-35.904 0-65.024-29.12-65.024-65.067v-18.24h-123.264c-23.275 0-42.816-18.816-42.816-42.091v-693.248c0-23.317 19.541-42.133 42.816-42.133h669.077c23.339 0 42.88 18.816 42.88 42.133v693.269c-0.043 23.253-19.627 42.048-42.923 42.048zM835.755 2.846h-647.616v674.325h112.533v-47.595h424.32v47.595h110.741v-674.325zM846.464 728.692v24.384h-121.451v-24.384h24.384v18.261c0 49.365-40 89.429-89.365 89.472h-31.040v-24.405l24.384 0.341c-1.131 76.843-63.659 138.496-140.501 138.496-76.821-0.021-139.349-61.653-140.459-138.475l24.384-0.384v24.427h-31.061c-49.408-0.021-89.365-40.064-89.408-89.472v-18.24h24.384v24.363h-123.285c-36.501-0.064-67.008-29.12-67.179-66.475v-693.248c0.171-37.376 30.677-66.368 67.179-66.496h669.077c36.501 0.064 67.093 29.12 67.243 66.496v693.291c-0.384 37.376-30.784 66.347-67.285 66.432v-48.789c4.992 0 9.749-2.005 13.12-5.376 3.499-3.413 5.419-7.616 5.419-12.309v-693.248c0-9.259-8.384-17.749-18.496-17.749h-669.077c-10.069 0-18.411 8.491-18.432 17.749v693.248c0 4.715 1.899 8.939 5.333 12.309s8.085 5.376 13.099 5.376h147.627v42.667c0.064 22.464 18.24 40.661 40.661 40.683h55.083l0.341 24.021c0.725 50.133 41.6 90.432 91.712 90.432 50.133 0 91.008-40.32 91.712-90.411l0.299-24.064h55.125c22.464-0.021 40.576-18.219 40.619-40.683v-42.645h145.835v24.405zM835.755 2.846v24.384h-623.232v625.557h63.787v-47.595h473.067v47.595h61.995v-649.941h48.768v698.688h-159.509v-47.595h-375.573v47.595h-161.28v-723.051h696.363v24.384h-24.384zM678.251 465.012h-318.571c-18.027 0-32.683-16.064-32.683-37.632 0-21.525 14.656-37.653 32.683-37.653h318.571c18.133 0 32.704 16.128 32.704 37.653 0 21.568-14.571 37.632-32.704 37.632zM678.251 290.484h-318.571c-18.027 0-32.683-16-32.683-37.632 0-21.504 14.656-37.76 32.683-37.76h318.571c18.133 0 32.704 16.256 32.704 37.76s-14.571 37.632-32.704 37.632z" />
<glyph unicode="&#xe644;" glyph-name="collection" d="M999.872 380.98h-20.075v145.92c0 12.864-10.795 23.253-24.107 23.253h-19.2v117.333c0 12.864-10.837 23.253-24.171 23.253h-28.971v117.333c0 12.864-10.795 23.275-24.128 23.275h-694.443c-13.333 0-24.107-10.411-24.107-23.275v-117.312h-29.013c-13.312 0-24.107-10.389-24.107-23.253v-117.333h-19.264c-13.312 0-24.107-10.389-24.107-23.253v-145.92h-20.075c-13.291-0.021-24.107-10.411-24.107-23.211v-288.235c0-12.8 10.816-23.189 24.107-23.189h975.765c13.333 0 24.128 10.389 24.128 23.189v288.235c0 12.8-10.795 23.189-24.128 23.189zM188.885 784.884h646.229v-94.123h-646.229v94.123zM135.765 644.276h752.448v-94.123h-752.448v94.123zM931.605 380.98h-185.365c-11.541 0-21.483-7.957-23.723-18.901l-20.331-103.488h-380.352l-20.395 103.488c-2.176 10.944-12.075 18.901-23.701 18.901h-185.323v122.709h839.189v-122.709z" />
<glyph unicode="&#xe645;" glyph-name="delete" d="M904.128 918.324h-252.587c-1.792 18.261-17.216 32.533-35.925 32.533h-207.232c-18.752 0-34.155-14.272-35.968-32.533h-252.565c-19.968 0-36.096-16.192-36.096-36.139v-68.651c0-19.968 16.149-36.139 36.096-36.139h784.277c19.925 0 36.117 16.192 36.117 36.139v68.651c0 19.947-16.213 36.139-36.117 36.139zM159.509 707.956v-744.96c0-19.925 16.171-36.139 36.139-36.139h632.683c19.925 0 36.139 16.213 36.139 36.139v744.96h-704.96zM424.085 148.852c0-21.995-17.835-39.851-39.829-39.851s-39.851 17.792-39.851 39.851v394.965c0 21.995 17.856 39.808 39.851 39.808s39.829-17.813 39.829-39.808v-394.965zM679.552 148.852c0-21.995-17.792-39.851-39.851-39.851-21.995 0-39.787 17.792-39.787 39.851v394.965c0 21.995 17.792 39.808 39.787 39.808 22.059 0 39.851-17.813 39.851-39.808v-394.965z" />
<glyph unicode="&#xe646;" glyph-name="search" d="M683.84 833.716c-156.203 156.181-410.432 156.181-566.677 0-156.181-156.288-156.181-410.453 0-566.699 139.115-139.093 355.776-154.048 511.893-45.419 3.264-15.552 10.795-30.379 22.891-42.453l227.477-227.456c33.173-33.131 86.72-33.131 119.701 0 33.109 33.088 33.109 86.677 0 119.659l-227.456 227.584c-12.032 12.011-26.901 19.541-42.432 22.784 108.651 156.181 93.739 372.821-45.397 512zM612.032 338.825c-116.651-116.629-306.475-116.629-423.040 0-116.565 116.651-116.565 306.411 0 423.019s306.389 116.608 423.040 0c116.608-116.629 116.608-306.368 0-423.019z" />
<glyph unicode="&#xe647;" glyph-name="activity" d="M642.069 843.294c0 59.435 48.213 107.563 107.541 107.563 59.456 0 107.605-48.128 107.605-107.563 0-59.413-48.149-107.563-107.605-107.563-59.349 0-107.541 48.149-107.541 107.563zM358.144 370.057l-55.936-77.483h-202.197c-30.144 0-60.267-25.792-60.267-56 0-34.325 25.856-60.117 60.267-60.117h236.629c21.504 0 38.741 8.512 51.605 30.059l55.979 81.664c-4.352 0.064-81.813 51.669-86.080 81.877zM947.541 486.217l-159.147 38.699-47.339 146.304c-1.067 3.157-3.115 5.504-4.587 8.235-2.475 7.339-7.424 14.763-16.939 21.867l-70.869 47.253c-5.269 5.568-11.456 10.304-19.392 12.971l-163.541 55.936c-12.864 4.309-30.059 4.309-38.72 0l-185.003-98.965c-25.792-12.928-34.411-43.029-21.504-64.533 8.597-17.195 21.504-25.835 38.699-25.835 8.64 0 17.195 0 25.835 4.331l167.765 86.037 99.136-34.965-129.259-197.333c-24.299-41.771-36.736-83.307-11.371-115.968 4.565-8.448 10.581-16.341 20.011-21.739l163.435-120.448-98.859-219.477c-12.928-30.059 0-64.512 30.101-77.461 8.512-4.267 17.195-4.267 25.835-4.267 21.461 0 43.008 12.928 51.52 34.453l116.203 266.752c12.864 21.461 4.331 51.52-17.152 68.8l-128 93.269 103.339 167.595 28.885-88.725c4.395-17.195 17.216-30.101 34.453-34.432l185.003-47.296h4.416c25.792-4.395 47.339 12.885 51.584 38.635 8.469 30.187-8.683 55.979-34.539 60.309z" />
<glyph unicode="&#xe648;" glyph-name="add" d="M512 950.857c-281.6 0-512-230.4-512-512 0-281.643 230.4-512 512-512 281.643 0 512 230.357 512 512 0 281.6-230.357 512-512 512zM768 387.678h-204.821v-204.821h-102.357v204.821h-204.821v102.357h204.821v204.821h102.357v-204.821h204.821v-102.357z" />
<glyph unicode="&#xe649;" glyph-name="album" d="M1024 206.11v651.648c0 51.2-41.856 93.099-93.035 93.099h-651.669c-51.2 0-93.099-41.899-93.099-93.099v-651.648c0-51.2 41.899-93.035 93.099-93.035h651.648c51.2 0 93.056 41.813 93.056 93.035zM442.197 462.153l116.352-139.648 162.923 209.451 209.493-279.317h-651.669l162.901 209.515zM0 764.681v-744.789c0-51.179 41.899-93.035 93.099-93.035h744.683v93.035h-744.683v744.789h-93.099z" />
<glyph unicode="&#xe64a;" glyph-name="album-settings" d="M1022.741 751.689c-0.597 5.525-7.083 9.707-12.715 9.707-18.155 0-34.219 10.667-41.003 27.157-6.869 16.853-2.368 36.544 11.115 48.939 4.203 3.861 4.736 10.389 1.259 14.933-9.344 11.755-19.925 22.4-31.467 31.659-4.501 3.605-11.115 3.093-14.997-1.237-11.797-13.077-33.088-17.92-49.365-11.093-17.024 7.147-27.797 24.448-26.773 42.965 0.363 5.845-3.861 10.901-9.728 11.563-14.699 1.728-29.653 1.792-44.48 0.128-5.781-0.619-10.027-5.568-9.856-11.328 0.661-18.325-10.219-35.307-27.051-42.219-16.213-6.613-37.227-1.792-49.045 11.136-3.883 4.245-10.389 4.757-14.955 1.259-11.883-9.344-22.656-19.968-32.043-31.659-3.627-4.544-3.115-11.115 1.216-15.061 13.781-12.48 18.219-32.32 11.093-49.387-6.805-16.235-23.744-26.752-43.072-26.752-6.315 0.192-10.773-4.011-11.413-9.707-1.749-14.869-1.792-30.016-0.128-45.035 0.661-5.568 7.296-9.749 12.971-9.749 17.28 0.469 33.792-10.24 40.704-27.093 6.933-16.896 2.475-36.565-11.072-48.96-4.224-3.904-4.821-10.411-1.195-14.869 9.195-11.776 19.733-22.4 31.275-31.701 4.629-3.669 11.136-3.115 15.125 1.195 11.861 13.077 33.003 17.92 49.323 11.072 17.088-7.125 27.883-24.427 26.837-42.944-0.405-5.845 3.925-10.901 9.664-11.563 7.595-0.917 15.168-1.344 22.784-1.344 7.232 0 14.549 0.363 21.76 1.195 5.739 0.64 10.005 5.568 9.792 11.328-0.619 18.347 10.219 35.307 27.136 42.219 16.235 6.656 37.184 1.771 49.003-11.157 3.947-4.245 10.368-4.757 14.955-1.216 11.819 9.28 22.656 19.904 31.979 31.616 3.648 4.544 3.093 11.115-1.216 15.019-13.781 12.523-18.219 32.363-11.072 49.429 6.72 16.043 23.019 26.816 40.469 26.816l2.411-0.085c5.696-0.448 10.88 3.947 11.584 9.685 1.899 14.976 1.899 30.123 0.192 45.141zM826.411 663.241c-36.459 0-66.091 29.632-66.091 66.048 0 36.395 29.632 66.005 66.091 66.005 36.416 0 66.027-29.611 66.027-66.005 0-36.416-29.611-66.048-66.027-66.048zM70.891 587.956h-70.891v-567.147c0-38.912 31.893-70.72 70.891-70.72h566.976v70.72h-566.976v567.147zM761.323 543.86l0.085 2.539h-0.021l0.021 0.661c0.043 4.693-2.987 9.259-7.232 10.965h-0.043l-3.584 0.597c-3.819 0.171-8.64-2.197-9.643-3.669l-0.192-0.192c-8.299-9.003-20.011-13.973-31.723-13.931-9.408-0.021-19.072 3.179-26.795 9.344l-0.107 0.064-0.107 0.085c-13.227 10.667-25.344 22.869-36.011 36.437l-0.021-0.021c-0.043 0.043-0.043 0.085-0.085 0.128-0.085 0.128-0.213 0.235-0.32 0.363l0.085 0.064c-6.123 7.744-9.28 17.259-9.259 26.368 0 11.691 4.843 23.275 13.867 31.637l0.043 0.043 0.064 0.043c2.496 2.261 3.925 5.611 3.904 8.896l-0.832 4.288c-1.749 4.587-6.635 7.403-10.027 7.253h-1.109c-8 0.064-14.677 1.984-20.885 5.056-6.144 3.157-12.011 7.573-17.003 14.741-3.264 4.757-6.016 10.965-6.869 18.133l-0.043 0.256c-0.939 8.491-1.408 17.024-1.408 25.557v0h-383.403c-38.997 0-70.891-31.893-70.891-70.891v-496.171c0-38.976 31.893-70.848 70.891-70.848h496.192c38.955-0.043 70.805 31.872 70.805 70.848v346.347c-11.072 7.765-18.304 20.48-18.347 35.008zM212.672 198.089l124.011 159.531 88.619-106.325 124.053 159.467 159.531-212.651h-496.213z" />
<glyph unicode="&#xe64b;" glyph-name="close" d="M670.464 438.857l347.243 347.264c8.384 8.32 8.384 21.803 0 30.187l-128.256 128.299c-3.989 4.011-9.493 6.251-15.125 6.251s-11.008-2.24-14.997-6.251l-347.371-347.243-347.264 347.243c-8 8-22.123 8-30.123 0l-128.363-128.299c-8.256-8.384-8.256-21.867 0-30.187l347.243-347.264-347.243-347.243c-8.256-8.384-8.256-21.867 0-30.123l128.384-128.384c3.989-4.011 9.365-6.251 15.104-6.251 5.632 0 11.008 2.24 14.997 6.251l347.264 347.243 347.371-347.243c4.011-4.011 9.387-6.251 14.997-6.251s11.115 2.24 15.125 6.251l128.256 128.384c8.384 8.256 8.384 21.76 0 30.123l-347.243 347.243z" />
<glyph unicode="&#xe64c;" glyph-name="collaborate-user" d="M816.576 244.020c-2.219 23.808-1.387 40.363-1.387 62.059 10.795 5.653 30.037 41.621 33.344 72.064 8.448 0.704 21.803 8.96 25.664 41.557 2.091 17.493-6.251 27.328-11.328 30.421 13.739 41.408 42.325 169.536-52.949 182.784-9.771 17.216-34.837 25.941-67.52 25.941-17.515-0.341-32.853-2.453-46.421-5.995-3.285-29.269-9.173-55.445-14.144-73.877 8.747-14.912 14.080-34.667 11.2-58.688-5.696-47.275-23.808-71.552-41.323-83.989-4.373-18.56-11.52-37.952-20.203-55.552 2.688-1.621 5.333-2.432 7.552-2.603 3.307-30.443 23.339-66.411 34.133-72.064 0-21.717 0.853-38.251-1.365-62.059l-0.064-0.256c9.835-4.181 20.139-8.277 30.4-12.331 73.003-28.864 169.6-67.008 198.272-171.328h123.563c-8.107 133.952-181.653 114.411-207.424 183.915zM506.709 273.097c-3.051 34.069-1.92 57.941-1.92 89.109 15.467 8.085 43.179 59.776 47.872 103.467 12.096 1.024 31.296 12.864 36.885 59.669 3.072 25.131-8.939 39.275-16.256 43.712 19.733 59.456 60.8 243.435-75.989 262.421-14.101 24.768-50.133 37.248-96.96 37.248-187.456-3.456-210.133-141.525-168.981-299.669-7.317-4.437-19.307-18.581-16.384-43.712 5.696-46.805 24.832-58.645 36.949-59.669 4.672-43.669 33.451-95.381 48.981-103.467 0-31.168 1.131-55.040-1.984-89.109-37.056-99.776-287.296-71.765-298.923-264.085h804.523c-11.52 192.32-260.693 164.309-297.813 264.085z" />
<glyph unicode="&#xe64d;" glyph-name="communication" d="M413.739 729.438c-228.523 0-413.739-142.443-413.739-318.229 0-86.229 44.629-164.587 117.056-221.845-4.224-58.432-18.261-129.92-59.008-168.427 81.088 0 163.968 50.816 216.341 90.517 43.541-11.968 90.411-18.56 139.349-18.56 228.523 0 413.739 142.443 413.739 318.315 0 175.787-185.216 318.229-413.739 318.229zM963.733 380.233c34.837 46.485 54.763 100.587 54.763 158.272 0 175.808-185.301 318.272-413.781 318.272-100.565 0-192.725-27.648-264.427-73.451 33.749 6.357 69.013 9.792 105.301 9.792 246.080 0 445.568-156.8 445.568-350.101 0-76.181-30.869-146.795-83.52-204.117 52.309-39.723 135.296-90.688 216.384-90.688-57.707 54.741-61.803 176.107-60.288 232.021z" />
<glyph unicode="&#xe64e;" glyph-name="contacts" d="M703.424 360.756c0 13.419-5.995 23.253-18.005 29.675l-165.504 78.997c18.965 11.968 34.411 29.376 46.336 52.203 12.011 22.827 17.92 48 17.92 75.371 0 19.712-3.093 38.336-9.344 55.915-6.507 17.579-15.168 32.875-26.453 45.867s-24.427 23.381-39.509 31.125c-15.168 7.701-31.211 11.584-48 11.584-16.917 0-32.875-3.883-48-11.584-15.168-7.744-28.331-18.133-39.509-31.125-11.328-12.992-20.288-28.288-26.965-45.867-6.699-17.579-10.005-36.203-10.005-55.915 0-28.075 6.123-53.632 18.453-76.459 12.245-22.827 28.629-40.213 49.088-52.16l-167.744-77.952c-5.589-2.24-10.005-5.995-13.163-11.669s-4.715-11.669-4.715-18.005v-132.843c0-9.173 2.624-16.832 7.872-23.168 5.291-6.336 11.797-9.493 19.456-9.493h429.248c7.829 0 14.336 3.157 20.011 9.493s8.491 13.995 8.491 23.168v132.843h0.043zM922.752 723.636v-87.573h70.592c8.576 0 15.659-3.008 21.589-8.917 5.973-6.016 9.067-13.227 9.067-21.675v-91.755c0-8.427-3.093-15.659-9.088-21.589-5.909-5.995-12.992-9.003-21.589-9.003h-70.592v-87.552h70.592c8.576 0 15.659-3.008 21.589-9.003 5.995-5.824 9.088-13.056 9.088-21.568v-91.584c0-8.576-3.093-15.829-9.088-21.675-5.909-5.995-12.992-9.088-21.589-9.088h-70.592v-87.509h70.592c8.576 0 15.659-3.008 21.589-9.003 5.995-5.973 9.088-13.141 9.088-21.547v-91.84c0-8.341-3.093-15.573-9.088-21.589-5.909-5.909-12.992-9.003-21.589-9.003h-70.592v-25.259c0-14.080-4.757-25.749-14.165-35.243-9.579-9.493-21.333-14.251-35.499-14.251h-823.488c-14.080 0-25.877 4.757-35.285 14.251-9.579 9.515-14.293 21.184-14.293 35.264v923.776c0 14.101 4.715 25.835 14.293 35.349 9.408 9.493 21.205 14.251 35.285 14.251h823.509c14.165 0 25.92-4.757 35.499-14.251 9.408-9.493 14.165-21.248 14.165-35.328v-24.256h70.592c8.576 0 15.744-3.008 21.589-8.96 5.973-5.973 9.067-13.163 9.067-21.632v-91.712c0-8.448-3.093-15.659-9.088-21.675-5.824-5.995-12.992-8.875-21.589-8.875l-70.571 0.021z" />
<glyph unicode="&#xe64f;" glyph-name="copy-down" d="M242.56 843.060h215.595v-711.36l-194.048 193.984-75.456-75.499 323.371-323.328 323.328 323.328-75.413 75.499-194.005-193.984v819.157h-323.371z" />
<glyph unicode="&#xe650;" glyph-name="details" d="M1013.077 88.201l-444.629 770.005c-11.563 20.224-33.237 32.747-56.555 32.747-23.275 0-44.949-12.565-56.597-32.704l-446.571-773.568c-11.648-20.053-11.648-45.12 0-65.195 11.669-20.224 33.28-32.747 56.597-32.747h893.397c35.968 0 65.28 29.291 65.28 65.344 0 13.504-4.011 26.325-10.923 36.117zM565.781 601.524l-16.427-351.573h-90.112l-16.427 351.573h122.965zM504.299 91.508c-33.024 0-57.109 25.216-57.109 59.904 0 34.517 24.085 59.733 57.109 59.733 33.728 0 57.237-24.576 57.237-59.733 0-35.264-23.552-59.904-57.237-59.904z" />
<glyph unicode="&#xe651;" glyph-name="download" d="M933.675 589.47h-241.024v361.387h-361.344v-361.387h-240.981l421.675-421.675 421.675 421.675zM90.325 47.305v-120.448h843.328v120.448h-843.328z" />
<glyph unicode="&#xe652;" glyph-name="dropdown" d="M0 707.017h1024l-512-536.32z" />
<glyph unicode="&#xe653;" glyph-name="edit" d="M614.912 736.201c-26.837 26.837-70.379 26.837-97.216 0l-374.933-375.573c0 0-34.219-34.411-111.339-283.499-0.533-1.749-1.088-3.499-1.621-5.248-1.365-4.501-2.795-9.003-4.16-13.589-1.259-4.075-2.496-8.256-3.755-12.416-1.088-3.499-2.133-6.997-3.2-10.581-2.453-8.171-4.907-16.427-7.467-25.003-5.547-18.837-19.093-61.248-3.797-76.587 14.741-14.827 57.621-1.835 76.373 3.755 8.533 2.581 16.747 4.992 24.875 7.424 3.712 1.173 7.339 2.24 11.008 3.413 3.925 1.173 7.829 2.325 11.669 3.499 4.843 1.493 9.579 3.008 14.293 4.416 1.408 0.427 2.752 0.917 4.16 1.344 236.949 73.749 279.531 108.416 283.072 111.573h0.043c0.128 0.171 0.256 0.256 0.256 0.256l10.965 11.008 0.747-0.747 364.373 364.736c26.837 26.88 26.837 70.421 0 97.301l-194.347 194.517zM394.048 113.374c-0.341-0.256-0.704-0.491-1.173-0.747-0.213-0.171-0.491-0.341-0.789-0.491s-0.576-0.341-0.917-0.576c-0.299-0.171-0.619-0.341-0.917-0.576-11.328-6.741-44.544-24.256-125.12-53.419-9.408-3.413-19.669-6.997-30.379-10.667l-114.581 114.581c3.755 10.837 7.381 21.163 10.795 30.677 29.077 80.917 46.549 114.24 53.291 125.504 0.171 0.341 0.299 0.576 0.448 0.747 0.256 0.427 0.448 0.747 0.661 1.173 0.171 0.256 0.341 0.491 0.448 0.747 0.299 0.427 0.533 0.832 0.747 1.088l8.384 8.427 207.616-207.829-8.512-8.64zM1003.499 736.201l-194.24 194.496c-26.923 26.88-70.421 26.88-97.259 0l-48.491-48.619c-26.837-26.88-26.837-70.421 0-97.259l194.24-194.539c26.837-26.88 70.336-26.88 97.259 0l48.491 48.619c26.837 26.88 26.837 70.421 0 97.301z" />
<glyph unicode="&#xe654;" glyph-name="export" d="M783.68 134.068h-661.653v526.016h96.96l182.144 129.856h-401.131v-778.709h900.629v385.173l-116.949-116.501zM306.709 348.062c100.992 94.827 220.565 202.197 419.285 195.349v-136.555l298.005 229.781-298.005 229.824v-136.789c-211.051-2.027-419.285-156.245-419.285-381.611z" />
</font>
</defs>
</svg>
